<?xml version="1.0" standalone="no"?>
<!DOCTYPE svg PUBLIC "-//W3C//DTD SVG 1.1//EN" "http://www.w3.org/Graphics/SVG/1.1/DTD/svg11.dtd" >
<svg xmlns="http://www.w3.org/2000/svg" xmlns:xlink="http://www.w3.org/1999/xlink" version="1.1">
<metadata>
Created by FontForge 20170731 at Wed Nov 25 23:17:53 1992
 By Aleksey,,,
Copyright (c) 1992 Image Club Graphics, Inc.
</metadata>
<defs>
<font id="Grouch" horiz-adv-x="474" >
  <font-face 
    font-family="Grouch"
    font-weight="5"
    font-stretch="normal"
    units-per-em="940"
    panose-1="0 0 0 0 0 0 0 0 0 0"
    ascent="752"
    descent="-188"
    x-height="516"
    cap-height="740"
    bbox="-87 -246 1167 1023"
    underline-thickness="20"
    underline-position="-163"
    unicode-range="U+0020-25CA"
  />
<missing-glyph horiz-adv-x="740" 
d="M46 0v740h648v-740h-648zM648 46v648h-556v-648h556z" />
    <glyph glyph-name=".notdef" horiz-adv-x="740" 
d="M46 0v740h648v-740h-648zM648 46v648h-556v-648h556z" />
    <glyph glyph-name=".null" unicode="&#xd7;" horiz-adv-x="0" 
 />
    <glyph glyph-name=".null" unicode="&#x141;" horiz-adv-x="0" 
 />
    <glyph glyph-name=".null" unicode="&#xfd;" horiz-adv-x="0" 
 />
    <glyph glyph-name="nonmarkingreturn" horiz-adv-x="264" 
 />
    <glyph glyph-name="space" unicode=" " horiz-adv-x="264" 
 />
    <glyph glyph-name="exclam" unicode="!" horiz-adv-x="352" 
d="M317 570q0 -79 -35 -158q-50 -95 -77 -154l-6 -13h-44l-5 12q-38 67 -64 121q-50 104 -50 192q0 68 39 121q43 58 106 58q62 0 99 -52.5t37 -126.5zM178 -20q-55 0 -85 33.5t-30 81.5q0 46 30.5 80.5t84.5 34.5t86 -36q29 -33 29 -79q0 -47 -28 -79q-32 -36 -87 -36z" />
    <glyph glyph-name="quotedbl" unicode="&#x22;" horiz-adv-x="297" 
d="M266 649q0 -41 -13 -85q-18 -52 -27 -83l-1 -7h-16l-1 6q-15 44 -29 88q-11 44 -11 81t14 66.5t36 29.5q21 0 34.5 -28.5t13.5 -67.5zM134 649q0 -41 -13 -85q-18 -52 -27 -83l-1 -7h-16l-1 6q-15 44 -29 88q-11 44 -11 81t14 66.5t36 29.5q21 0 34.5 -28.5t13.5 -67.5z
" />
    <glyph glyph-name="numbersign" unicode="#" horiz-adv-x="624" 
d="M586 616l-50 -192h-114l-25 -98h111l-50 -192h-112l-32 -122h-52l31 122h-102l-31 -122h-50l30 122h-106l48 192h109l27 98h-106l48 192h107l31 116h50l-29 -116h102l31 116h50l-29 -116h113zM370 424h-102l-25 -98h102z" />
    <glyph glyph-name="dollar" unicode="$" horiz-adv-x="605" 
d="M571 236q0 -107 -92 -187q-22 -19 -62.5 -34t-79.5 -21l-18 -3v-144h-52v143h-17q-19 0 -43 3t-56.5 10.5t-48.5 12.5q-34 10 -59 20l-12 5v264h38l5 -28q5 -36 28 -91q18 -42 37 -67q29 -37 51 -56q29 -25 57 -30l20 -4v224l-20 10q-32 13 -64.5 30t-51.5 32
q-51 40 -75 84t-24 104q0 63 34 117q31 49 83 81q23 14 45 21t56 14l15 3v147h52v-145h12q12 0 36 -3.5t57 -10.5q19 -4 40 -10.5t31 -9.5l14 -4v-222h-42l-4 24q-13 80 -46 124q-20 26 -42.5 44t-46.5 25l-11 3v-224l24 -8q32 -11 53.5 -20t52.5 -26q56 -31 89 -79
q37 -54 37 -118zM265 509v201l-12 -4q-28 -9 -44.5 -40t-16.5 -54q0 -28 16.5 -57t42.5 -40zM386 122q0 30 -18.5 58t-39.5 38l-12 6v-191l14 4q27 8 41.5 31.5t14.5 53.5z" />
    <glyph glyph-name="percent" unicode="%" horiz-adv-x="819" 
d="M445 562q0 -80 -59 -134t-143 -54q-82 0 -144 54t-62 132q0 80 61 136t143 56q84 0 144 -55t60 -135zM575 740l-293 -740h-27l295 740h25zM789 174q0 -80 -59 -134t-143 -54q-82 0 -144 54t-62 132q0 80 61 136t143 56q84 0 144 -55t60 -135zM299 558v27q0 66 -8 96
q-13 47 -48 47q-31 0 -44.5 -34t-13.5 -136q0 -75 6 -103q12 -55 52 -55q36 0 48 42q8 27 8 86v30zM643 170v27q0 66 -8 96q-13 47 -48 47q-31 0 -44.5 -34t-13.5 -136q0 -75 6 -103q12 -55 52 -55q36 0 48 42q8 27 8 86v30z" />
    <glyph glyph-name="ampersand" unicode="&#x26;" horiz-adv-x="882" 
d="M844 204q0 -88 -58 -148t-152 -60q-51 0 -84 9.5t-69 39.5l-11 8l-12 -7q-33 -23 -71 -37q-50 -19 -96 -19q-107 0 -181 66t-74 165q0 82 52 138q49 52 140 79l14 3l-16 17q-33 36 -48 64q-18 34 -18 75q0 70 55.5 115.5t136.5 45.5q67 0 114 -41t47 -102
q0 -32 -10.5 -53t-37.5 -39l-9 -6l12 -13q15 -17 26 -32q3 -4 35 -56q9 -15 40 -74q23 -43 24 -46l5 -9l6 9q8 15 12.5 39.5t4.5 45.5q0 34 -24 65q-29 38 -73 38h-8v37h268v-39h-6q-19 0 -35 -12q-11 -8 -25 -26q-20 -26 -36 -70q-42 -119 -48 -129l-8 -14l10 -14
q16 -24 33 -48q32 -43 69 -43q32 0 48.5 24.5t16.5 64.5v12l41 -10v-13zM448 623q0 34 -21 57t-57 23q-24 0 -41.5 -18.5t-17.5 -44.5q0 -39 40.5 -72.5t68.5 -26.5q11 3 19.5 29t8.5 53zM440 92q-12 18 -35 53t-35 59q-31 56 -49 88q-31 56 -55 106l-19 -6
q-19 -7 -28.5 -26.5t-12.5 -46.5q-4 -37 28 -106q37 -80 87 -109q17 -9 35.5 -14.5t34.5 -5.5q17 0 32 4z" />
    <glyph glyph-name="quotesingle" unicode="'" horiz-adv-x="168" 
d="M134 649q0 -41 -13 -85q-18 -52 -27 -83l-1 -7h-16l-1 6q-15 44 -29 88q-11 44 -11 81t14 66.5t36 29.5q21 0 34.5 -28.5t13.5 -67.5z" />
    <glyph glyph-name="parenleft" unicode="(" horiz-adv-x="468" 
d="M436 -168l-34 2q-58 0 -118 22t-114 66q-74 60 -106 160q-28 86 -28 212q0 121 28 197q33 90 116 157q51 41 100 60t120 28l33 4v-54l-21 -3q-29 -4 -52.5 -17.5t-31.5 -33.5q-29 -70 -37 -145t-8 -185q0 -148 8 -221q12 -113 49 -163q12 -16 34.5 -27t48.5 -11l13 -1
v-47z" />
    <glyph glyph-name="parenright" unicode=")" horiz-adv-x="477" 
d="M439 296q0 -124 -28 -211q-33 -101 -106 -161q-54 -44 -114 -66t-118 -22l-34 -2v47l13 1q21 0 39 6q28 9 44 32q27 37 42 119t15 265q0 148 -10.5 209t-34.5 121q-8 20 -32 34t-52 17l-23 3v52l35 -2q60 0 112.5 -22t107.5 -66q82 -66 115 -156q29 -78 29 -198z" />
    <glyph glyph-name="asterisk" unicode="*" horiz-adv-x="423" 
d="M381 450q-15 -34 -55 -34q-14 0 -24 4.5t-20 16.5q-4 5 -40 51l-12 15q9 -17 14 -28q18 -38 27 -68q1 -3 1 -11q0 -21 -18 -38t-41 -17q-24 0 -42.5 18.5t-15.5 40.5q3 24 19 66q5 13 15 36q-15 -23 -24 -35q-29 -38 -50 -49q-14 -6 -26 -6q-32 0 -48 27q-8 13 -8 29
q0 22 13 40.5t34 20.5l90 12l-91 11q-23 4 -35.5 20.5t-12.5 37.5q0 20 9 32t22.5 18.5t28.5 6.5q24 0 38 -15q10 -11 45 -55q5 -6 13 -17q-9 18 -14 30q-16 37 -24 67q-5 20 13.5 41t44.5 21q27 0 46 -19.5t14 -40.5q-9 -33 -21 -66t-15 -34q15 19 23 30q21 26 43 50
q10 10 29 10q38 0 54 -27q8 -14 8 -30q0 -19 -9.5 -35t-27.5 -20t-62 -10q-13 -1 -36 -4l88 -12q22 -3 33.5 -19t11.5 -38q0 -12 -5 -24z" />
    <glyph glyph-name="plus" unicode="+" horiz-adv-x="606" 
d="M570 217h-227v-219h-89v219h-221l1 89h220v234h91v-235h225v-88z" />
    <glyph glyph-name="comma" unicode="," horiz-adv-x="297" 
d="M265 65q0 -68 -45.5 -121t-109.5 -64l-29 -5l-6 41l14 2q19 3 32 11q3 2 18.5 15t31.5 40q4 14 9 27q-14 -4 -29.5 -7.5t-28.5 -3.5q-36 0 -60.5 29.5t-24.5 71.5q0 47 32.5 80.5t78.5 33.5q54 0 87 -47q30 -43 30 -103z" />
    <glyph glyph-name="hyphen" unicode="-" horiz-adv-x="331" 
d="M297 251h-265v94h265v-94z" />
    <glyph glyph-name="period" unicode="." horiz-adv-x="296" 
d="M147 -15q-54 0 -84.5 34.5t-30.5 80.5q0 48 29.5 82t85.5 34q55 0 87 -36q29 -32 29 -80q0 -46 -30.5 -80.5t-85.5 -34.5z" />
    <glyph glyph-name="slash" unicode="/" horiz-adv-x="504" 
d="M464 741l-384 -941h-40l384 941h40z" />
    <glyph glyph-name="zero" unicode="0" horiz-adv-x="746" 
d="M715 375q0 -151 -95 -262q-99 -116 -244 -116q-146 0 -245.5 112.5t-99.5 265.5q0 149 99.5 260.5t242.5 111.5q149 0 247 -111q95 -108 95 -261zM472 369v49.5t1 51.5q0 142 -24.5 188.5t-72.5 46.5t-72 -49q-27 -56 -27 -210v-71q0 -22 -0.5 -44t-0.5 -45
q0 -150 27 -203q24 -47 73 -47q47 0 70 48q27 56 27 208q0 19 -0.5 38.5t-0.5 38.5z" />
    <glyph glyph-name="one" unicode="1" horiz-adv-x="459" 
d="M426 0h-368v32h7q13 0 27.5 2.5t26.5 10.5q16 11 20.5 25t4.5 37q0 8 -0.5 16.5t-0.5 17.5v327q0 24 -4 34.5t-16 21t-35 25.5t-44 29l-9 6q49 23 83 41q51 28 82 44q39 21 71 39q76 44 84 49v-616q0 -45 3 -67.5t19 -31.5q7 -4 21.5 -7t20.5 -3h7v-32z" />
    <glyph glyph-name="two" unicode="2" horiz-adv-x="650" 
d="M616 263l-93 -263h-488v24l12 10q72 59 105 91q44 44 75 86q65 89 76 110q32 59 32 129q0 64 -34 109q-38 50 -97 50q-33 0 -60 -12q-36 -16 -60 -51l-9 -13l-24 15l6 13q41 88 115 139t163 51q99 0 169 -62t70 -155q0 -53 -27 -100q-31 -55 -130 -135q-39 -31 -64 -49
q-31 -22 -69 -46l-16 -10h23q24 0 48 -0.5t49 -0.5q59 0 94 3.5t52 15.5q28 18 30 20q15 13 25 33l4 8z" />
    <glyph glyph-name="three" unicode="3" horiz-adv-x="684" 
d="M650 244q0 -114 -104 -185q-95 -65 -225 -65q-114 0 -193 38q-94 45 -94 126q0 36 23.5 60.5t57.5 24.5q31 0 58 -25q24 -22 30 -48q17 -74 38 -102q25 -33 76 -33q59 0 85 47q21 37 21 100q0 73 -51.5 124.5t-128.5 51.5h-18v36h14q53 0 88 33t35 82q0 45 -32 78t-77 33
q-36 0 -62.5 -11.5t-49.5 -40.5l-8 -10l-25 19l15 22q46 68 106 104q69 41 158 41q87 0 147 -44q65 -48 65 -126q0 -45 -22.5 -77.5t-65.5 -55.5l-17 -9l17 -6q64 -23 101.5 -70t37.5 -112z" />
    <glyph glyph-name="four" unicode="4" horiz-adv-x="726" 
d="M687 241l-14 -70h-94v-31q0 -44 3.5 -66.5t16.5 -30.5t24.5 -9.5t26.5 -1.5h7v-32h-377v32h7q11 0 25.5 2.5t25.5 10.5q16 11 20.5 21.5t4.5 25.5v19v59h-307l-19 63q54 53 109 107q26 26 111 108q27 26 143 139q22 21 177 167l12 -5l-10 -48v-460h108zM363 241v243
l-230 -223l5 -20h225z" />
    <glyph glyph-name="five" unicode="5" horiz-adv-x="626" 
d="M592 262q0 -116 -82 -190t-205 -74q-113 0 -187 36q-88 43 -88 124q0 36 23.5 62.5t57.5 26.5q31 0 58 -26t30 -51q11 -71 40 -103q26 -28 68 -28q49 0 79 27t30 77q0 88 -121 127q-81 26 -198 26l-24 -2l49 446h371l40 36l22 -8l-54 -218h-350l-8 -56l56 5q14 1 25 1.5
t19 0.5q136 0 236 -59q113 -67 113 -180z" />
    <glyph glyph-name="six" unicode="6" horiz-adv-x="702" 
d="M672 260q0 -117 -92 -194q-88 -73 -209 -73q-136 0 -235.5 93.5t-99.5 225.5q0 162 118 286q108 113 273 157l41 11l10 -26l-20 -12q-34 -21 -61 -47q-23 -23 -49 -59q-33 -46 -51 -86.5t-27 -93.5l-4 -22l20 14q44 30 79 42.5t84 12.5q92 0 157.5 -67.5t65.5 -161.5z
M470 218q0 105 -31 149q-26 37 -77 37q-40 0 -68 -18q-19 -12 -28 -28q-5 -10 -8.5 -33t-3.5 -89q0 -84 21 -135q27 -66 85 -66q6 1 10 1q62 6 85 64q15 39 15 118z" />
    <glyph glyph-name="seven" unicode="7" horiz-adv-x="633" 
d="M618 740l-10 -18q-46 -82 -90 -163t-78 -167q-38 -97 -60 -177t-44 -195l-4 -20h-248l6 18q13 40 59 116q39 65 95 144q28 40 111 142q54 67 89 108l22 26h-44q-65 0 -144 -1.5t-103 -10t-52 -17.5q-27 -12 -51 -42l-12 -15l-24 16l100 256h482z" />
    <glyph glyph-name="eight" unicode="8" horiz-adv-x="666" 
d="M633 247q0 -122 -90 -190q-85 -65 -226 -65q-121 0 -196 52q-82 57 -82 159q0 48 31 94q26 39 60 59l18 11l-9 10q-62 70 -62 141q0 99 83 162.5t191 63.5q100 0 168 -43q79 -50 79 -140q0 -29 -11 -59q-14 -39 -43 -62l-10 -8l10 -7q43 -30 68 -86q21 -48 21 -92z
M521 556q0 61 -28 97q-33 43 -99 43q-39 0 -70.5 -26.5t-31.5 -63.5q0 -43 40 -74q16 -12 147 -67l12 -5l6 9q13 20 18.5 41t5.5 46zM420 151q0 81 -110 131q-58 25 -115 50l-10 5l-7 -10q-38 -56 -38 -124q0 -67 42.5 -117t115.5 -50q48 0 85 33.5t37 81.5z" />
    <glyph glyph-name="nine" unicode="9" horiz-adv-x="661" 
d="M632 425q0 -158 -137 -283q-113 -103 -269 -148l-41 -12l-13 26l20 12q41 24 66.5 45.5t57 60.5t49 72.5t32.5 84.5l6 20l-27 -12q-28 -12 -57 -16.5t-64 -4.5q-81 0 -148 61q-72 65 -72 155q0 117 86 190q80 68 194 68q135 0 226 -87.5t91 -231.5zM425 501q0 83 -19 134
q-25 66 -78 66q-10 0 -15 -1q-58 -9 -75 -66q-10 -33 -10 -115q0 -86 19 -127q26 -57 92 -57q46 0 66 20q5 5 12 17q4 7 6 32.5t2 96.5z" />
    <glyph glyph-name="colon" unicode=":" horiz-adv-x="299" 
d="M148 288q-54 0 -84.5 34.5t-30.5 80.5q0 48 29.5 82t85.5 34q55 0 87 -36q29 -32 29 -80q0 -46 -30.5 -80.5t-85.5 -34.5zM148 -9q-54 0 -84.5 34.5t-30.5 80.5q0 48 29.5 82t85.5 34q55 0 87 -36q29 -32 29 -80q0 -46 -30.5 -80.5t-85.5 -34.5z" />
    <glyph glyph-name="semicolon" unicode=";" horiz-adv-x="296" 
d="M147 294q-53 0 -82.5 33.5t-29.5 78.5q0 47 27 78q31 35 85 35t85 -35q28 -31 28 -78q0 -46 -28 -77q-31 -35 -85 -35zM264 86q0 -68 -45.5 -121t-109.5 -64l-29 -5l-6 41l14 2q19 3 32 11q3 2 18 14q20 17 37 51q2 8 4 17q-14 -4 -29.5 -7.5t-28.5 -3.5
q-36 0 -60.5 29.5t-24.5 71.5q0 47 32.5 80.5t78.5 33.5q54 0 87 -47q30 -43 30 -103z" />
    <glyph glyph-name="less" unicode="&#x3c;" horiz-adv-x="595" 
d="M560 -1l-525 227v90l524 223v-95l-419 -172l420 -182v-91z" />
    <glyph glyph-name="equal" unicode="=" horiz-adv-x="595" 
d="M577 327h-544v88h544v-88zM577 124h-544v88h544v-88z" />
    <glyph glyph-name="greater" unicode="&#x3e;" horiz-adv-x="595" 
d="M561 226l-525 -227v91l420 182l-419 172v95l524 -223v-90z" />
    <glyph glyph-name="question" unicode="?" horiz-adv-x="650" 
d="M620 541q0 -62 -38 -104q-34 -37 -97 -58q-23 -8 -77 -12.5t-83.5 -23t-38 -38t-8.5 -39.5v-14v-5h-43l-1 5l-5 51q0 36 18 78q15 35 33 54q52 50 105 100q20 30 20 78q0 41 -30.5 66.5t-78.5 25.5q-63 0 -83 -43q-14 -30 -14 -110q0 -35 -22.5 -56.5t-55.5 -21.5
q-35 0 -60.5 24.5t-25.5 59.5q8 94 89 148q73 49 178 49q118 0 209 -51q109 -61 109 -163zM266 -17q-51 0 -80.5 32.5t-29.5 76.5q0 46 28.5 78t81.5 32t83 -34q27 -30 27 -76q0 -45 -27 -75q-30 -34 -83 -34z" />
    <glyph glyph-name="at" unicode="@" horiz-adv-x="733" 
d="M711 410q0 -105 -67.5 -188t-158.5 -83q-39 0 -58 38q-6 12 -11 39l-29 -32q-35 -41 -90 -41t-91 44t-36 103q0 87 74 153q66 59 136 59q28 0 47 -10t26 -33l10 -27l18 59l81 2l-73 -271q-3 -12 -3 -27q0 -13 4.5 -21.5t13.5 -8.5q57 0 106.5 76.5t49.5 160.5
q0 109 -85 174q-78 59 -190 59q-120 0 -205.5 -85.5t-85.5 -205.5q0 -126 87.5 -215.5t211.5 -89.5q127 0 202 68q25 22 50 68h62q-14 -24 -27 -47q-39 -54 -98 -88q-83 -48 -191 -48q-144 0 -246 102t-102 246q0 142 100 243t242 101q130 0 225 -75q101 -79 101 -199z
M445 395q0 36 -14.5 59.5t-41.5 23.5q-46 0 -90 -77.5t-44 -152.5q0 -32 15.5 -55t48.5 -23q46 0 88 85q38 77 38 140z" />
    <glyph glyph-name="A" unicode="A" horiz-adv-x="871" 
d="M835 0h-417v34h15q19 0 29.5 2.5t17.5 13.5q12 17 12 37q0 6 -2 15t-5 18l-44 122h-204l-30 -80q-1 -3 -4 -19t-3 -27q0 -27 9 -50q5 -13 24 -24t33 -9l6 1v-34h-238v32h8q18 0 31.5 6t29.5 20t32 43t27 65l157 433l-31 63l224 117l231 -659l6 -20q4 -13 13 -29
q13 -22 28.5 -29.5t32.5 -7.5h12v-34zM429 291l-86 246l-87 -246h173z" />
    <glyph glyph-name="B" unicode="B" horiz-adv-x="804" 
d="M763 220q0 -103 -70 -161.5t-202 -58.5h-454v34h7q12 0 27.5 4t26.5 12q15 11 19.5 25.5t4.5 36.5v29v492q0 17 -5 31.5t-15.5 24t-26 11.5t-28.5 3l-8 1v36h412q113 0 176.5 -42t63.5 -125q0 -42 -28.5 -78.5t-72.5 -51.5l-17 -6l15 -5q81 -26 121 -67q54 -55 54 -145z
M496 575q0 61 -33 89.5t-85 28.5h-19v-242h17q68 0 97 37q23 29 23 87zM534 224q0 104 -45 147q-38 37 -117 37h-13v-267q0 -41 13 -64q17 -30 56 -30q61 0 87 59q19 43 19 118z" />
    <glyph glyph-name="C" unicode="C" horiz-adv-x="755" 
d="M724 25h-13h-17q-13 -3 -28 -5q-68 -13 -108 -20q-73 -13 -113 -13q-182 0 -294.5 110.5t-112.5 277.5q0 153 119.5 262.5t286.5 109.5q60 0 109.5 -10t99.5 -21l34 1l16 2v-243h-36l-4 22q-15 84 -71 145q-59 65 -133 65q-75 0 -115 -54q-33 -44 -44 -128
q-7 -53 -7 -151q0 -107 6 -155q11 -86 44 -133q40 -57 115 -57q79 0 146 76q64 72 74 158l3 24h42z" />
    <glyph glyph-name="D" unicode="D" horiz-adv-x="853" 
d="M825 375q0 -177 -108 -279q-101 -96 -260 -96h-418v34h7q11 0 28.5 3.5t30.5 13.5t17.5 24.5t4.5 36.5v29v492q0 17 -5 31.5t-15.5 24t-27 11.5t-29.5 3l-8 1v36h413q149 0 259.5 -107.5t110.5 -257.5zM576 342q0 201 -51 281q-45 71 -133 71h-26v-553q0 -43 14 -66
q18 -30 64 -30q61 0 93 60q39 72 39 237z" />
    <glyph glyph-name="E" unicode="E" horiz-adv-x="765" 
d="M729 215l-58 -215h-641v34h7q12 0 27.5 4t26.5 12q15 11 19.5 25.5t4.5 36.5v29v492q0 17 -5 31.5t-15.5 24t-26 11.5t-28.5 3l-8 1v36h472h16q14 0 26 1t26 5t21 8t25 16q6 -28 11.5 -50t15.5 -55q4 -15 15 -45q6 -18 17 -45l-32 -17q-17 30 -49 61q-35 34 -66 47
q-38 16 -50 19q-37 10 -94 10h-26v-254q8 -2 26 -2q26 0 50.5 4.5t43 16.5t26.5 28.5t11 40.5h36v-239h-39q-3 31 -11 46t-30.5 33t-65.5 26q-22 4 -36 4q-8 -1 -11 -1v-257q0 -40 17 -60q21 -25 71 -29q6 -1 18 -1q65 0 122 43q65 49 96 116l11 23z" />
    <glyph glyph-name="F" unicode="F" horiz-adv-x="709" 
d="M678 575l-32 -17q-17 30 -49 61q-35 34 -66 47q-38 16 -50 19q-37 10 -94 10h-26v-254q8 -2 26 -2q26 0 50.5 4.5t43 16.5t26.5 28.5t11 40.5h36v-239h-39q-3 31 -11 46t-30.5 33t-65.5 26q-22 4 -36 4q-8 -1 -11 -1v-257v-11q0 -24 5 -46.5t19 -33.5q10 -7 28 -11.5
t26 -4.5h7v-34h-415v34h7q12 0 27.5 4t26.5 12q15 11 19.5 25.5t4.5 36.5v29v492q0 17 -5 31.5t-15.5 24t-26 11.5t-28.5 3l-8 1v36h472h16q14 0 26 1t26 5t21 8t25 16q6 -28 11.5 -50t15.5 -55q4 -15 15 -45q6 -18 17 -45z" />
    <glyph glyph-name="G" unicode="G" horiz-adv-x="800" 
d="M765 255h-4q-4 -1 -7 -2q-10 -3 -16 -8q-15 -12 -15 -43v-145l-25 -12q-65 -31 -141 -47q-63 -13 -117 -13q-181 0 -295 113q-110 109 -110 277q0 154 120 265t286 111q73 0 138 -15q57 -17 73 -20.5t27.5 -5t22.5 -1.5l20 2v-231h-38l-4 18q-17 80 -85 147t-131 67
q-80 0 -123 -67q-53 -82 -53 -270q0 -149 25 -228q37 -118 132 -118q35 0 49 20q11 16 11 44q0 12 -1 21l-2 18q0 87 -17 102q-21 18 -56 18h-10v40h346v-37z" />
    <glyph glyph-name="H" unicode="H" horiz-adv-x="900" 
d="M863 703h-8q-23 0 -36 -2.5t-23 -11.5t-15.5 -25t-5.5 -31v-492q0 -46 6 -64.5t17.5 -26t27 -12t24.5 -4.5h7v-34h-393v34h7q5 0 16.5 4.5t18.5 8.5q15 11 20 25t5 36q-1 22 -1 33v255h-169v-255q0 -41 4 -66.5t25 -33t32 -7.5h7v-34h-394v34h7q12 0 27.5 4t26.5 12
q16 12 21 28t5 42v19v488q0 18 -5 34t-19 29q-9 8 -24.5 10t-28.5 3l-8 1v36h395v-37h-8q-20 0 -26 -2q-5 -1 -15.5 -11t-16 -26t-5.5 -31v-190h169v190v14q0 13 -2.5 24t-11 18.5t-9.5 8.5q-7 5 -27 5h-8v37h391v-37z" />
    <glyph glyph-name="I" unicode="I" horiz-adv-x="476" 
d="M446 0h-415v34h7q12 0 27.5 4t26.5 12q15 11 19.5 25.5t4.5 36.5v29v492q0 17 -5 31.5t-15.5 24t-27 11.5t-29.5 3l-8 1v36h415v-37h-8q-22 0 -34 -2t-22 -11.5t-15.5 -25.5t-5.5 -31v-492q0 -45 6 -63.5t17 -26.5t29 -12.5t26 -4.5h7v-34z" />
    <glyph glyph-name="J" unicode="J" horiz-adv-x="651" 
d="M615 703h-8q-22 0 -33 -2t-21 -11.5t-15.5 -25.5t-5.5 -31v-392q0 -56 -6 -82.5t-28 -62.5q-27 -45 -97 -78t-146 -33q-86 0 -149 40q-71 45 -71 119q0 42 22 65t58 23q35 0 59.5 -25.5t24.5 -61.5q-1 -17 -1 -28q0 -40 8 -60q12 -29 39 -29q31 0 43 39q8 27 8 75v491
q0 17 -3.5 32t-14 24t-26 11t-28.5 3l-8 1v36h399v-37z" />
    <glyph glyph-name="K" unicode="K" horiz-adv-x="880" 
d="M846 0h-400v34h7q14 0 26 8.5t16.5 20t4.5 29.5q0 59 -41 145q-44 93 -102 141l-12 10v-247q0 -45 6 -63.5t17.5 -27t19.5 -12.5t15 -4h7v-34h-379v34h7q14 0 25 4t22 12q15 11 19.5 25t4.5 35q-1 20 -1 31v492q0 17 -4 32.5t-13 24t-21 11t-26 2.5h-8v37h386v-37h-8
q-19 0 -29.5 -2t-20.5 -11t-14.5 -25.5t-4.5 -31.5v-185l28 21q48 35 100 101q43 55 43 88q0 15 -9 26t-13 13q-7 4 -26 6l-8 1v36h285v-37h-8q-16 0 -26 -1t-25 -6q-52 -18 -111 -74q-52 -57 -57 -63l-16 -17l27 -23q37 -30 69 -68q43 -49 74 -107q22 -40 51 -127
q53 -156 66 -164t38 -16l12 -3h7v-34z" />
    <glyph glyph-name="L" unicode="L" horiz-adv-x="743" 
d="M712 233l-66 -233h-609v34h7q12 0 27.5 4t26.5 12q15 11 19.5 25.5t4.5 36.5v29v492q0 17 -5 31.5t-15.5 24t-26 11.5t-28.5 3l-8 1v36h407v-37h-8q-22 0 -33 -2t-21 -11.5t-15.5 -25.5t-5.5 -31v-492q0 -37 19 -62.5t59 -25.5q83 0 163 83q61 63 72 103l3 10z" />
    <glyph glyph-name="M" unicode="M" horiz-adv-x="1003" 
d="M970 0h-417v34h7q12 0 27.5 4t26.5 12.5t15 21t4 28.5q0 6 -1 22.5t-1 25.5l-29 412l-179 -588l-207 594l-31 -416q0 -41 5.5 -66t24.5 -37q10 -6 22 -9.5t22 -3.5h10v-34h-233v34h6q24 0 39 7.5t28 24.5t19.5 42t6.5 38l35 424q0 4 1 16t1 22q0 22 -3.5 41.5t-12 32
t-17.5 16.5t-25 4h-10v38h310l92 -328l101 328h315v-37h-8q-15 0 -28.5 -2.5t-23.5 -11.5t-15.5 -25t-5.5 -31l30 -492q0 -29 9.5 -54t26.5 -37q8 -6 25.5 -11t30.5 -5h7v-34z" />
    <glyph glyph-name="N" unicode="N" horiz-adv-x="846" 
d="M813 704h-10q-18 0 -27 -2.5t-22 -12.5t-18 -36t-5 -47v-606h-110l-415 573v-414q0 -35 10.5 -66t28.5 -43q10 -6 26.5 -11t30.5 -5h7v-34h-251v34h7q21 0 38.5 5.5t30.5 16.5q17 14 21 45.5t4 57.5v474q0 11 -13 25q-1 1 -28 25q-10 9 -33 15t-46 6h-8v36h371l279 -392
v258q0 28 -8 51.5t-21.5 32.5t-28.5 11.5t-33 2.5h-7v36h230v-36z" />
    <glyph glyph-name="O" unicode="O" horiz-adv-x="855" 
d="M823 372q0 -174 -120 -285q-113 -105 -270 -105q-161 0 -280 110t-119 268q0 163 116.5 279.5t279.5 116.5q155 0 274 -114t119 -270zM574 366q0 101 -5 149q-9 87 -36 131q-34 56 -100 56q-91 0 -124 -89q-22 -60 -22 -187v-54q0 -109 4 -151q8 -88 36 -132
q35 -56 106 -56q99 0 127 114q14 56 14 219z" />
    <glyph glyph-name="P" unicode="P" horiz-adv-x="742" 
d="M710 526q0 -104 -75 -168q-70 -60 -171 -60q-32 0 -58 2.5t-54 6.5h-11v-166q0 -37 4 -58.5t19 -32.5q10 -7 24.5 -11.5t21.5 -4.5h7v-34h-386v34h7q15 0 24 3.5t18 12.5q18 18 22 37t4 54v492q0 17 -4 32.5t-13.5 24t-19.5 11t-27 2.5h-8v37h350q136 0 214 -40
q102 -52 112 -174zM481 528q0 86 -30.5 125.5t-99.5 39.5h-11v-337h28q66 0 93 52q20 39 20 120z" />
    <glyph glyph-name="Q" unicode="Q" horiz-adv-x="867" 
d="M834 373q0 -145 -72 -245q-76 -106 -219 -140l-16 -4l2 -7q7 -25 28.5 -37t50.5 -12q36 0 56 23.5t20 57.5v9h51v-19q0 -67 -51 -117t-129 -50q-164 0 -194 137l-3 13l-15 3q-140 24 -225 123t-85 239q0 171 114.5 292t290.5 121q156 0 274 -111q122 -115 122 -276z
M584 367q0 107 -6 157q-11 89 -40 133q-37 55 -108 55q-96 0 -127 -96q-17 -53 -17 -189l-1 -43v-12l13 6q38 15 69 15q32 0 68 -15q52 -21 77 -78q21 -48 21 -113q0 -21 -4 -57t-4 -59v-21l9 8q30 26 42 136q8 73 8 173zM403 258q0 32 -16 56.5t-43 24.5q-31 0 -54 -29
q-2 -6 -2 -31q0 -24 2 -53t7.5 -55.5t13.5 -59.5q11 -34 37 -57l9 -8l3 18q3 19 32 128q11 41 11 66z" />
    <glyph glyph-name="R" unicode="R" horiz-adv-x="897" 
d="M865 0h-393v34l8 2q21 5 33.5 23.5t12.5 42.5q0 101 -63 206q-59 98 -103 98h-8v-265q0 -45 6 -63.5t17 -26.5t29 -12.5t26 -4.5h7v-34h-397v34h7q21 0 42 16q15 11 19.5 25.5t4.5 36.5v29v492q0 22 -5.5 35.5t-15 22t-19.5 11t-25 2.5h-8v36h395q114 0 173 -27
q75 -35 92 -122q2 -7 2 -13v-13q0 -45 -27 -79t-71 -48l-12 -4l4 -4l40 -40q29 -30 50 -64q28 -44 60 -127q55 -140 79 -153q13 -7 21.5 -8t12.5 -2l6 -1v-35zM486 576q0 61 -37 91q-32 26 -86 26h-11v-233l21 -1q49 0 81 31t32 86z" />
    <glyph glyph-name="S" unicode="S" horiz-adv-x="623" 
d="M556 360q36 -58 36 -125q0 -94 -70 -169q-40 -42 -101 -63t-132 -21q-50 0 -119.5 14.5t-81.5 13.5q-15 0 -37 -8l-11 -4v304h38l3 -14q23 -110 78 -182q62 -82 145 -82q44 0 75 34q27 29 27 58q0 54 -46 90q-26 20 -100 52l-37 16q-88 38 -132 83q-55 57 -55 135
q0 108 79 183t195 75q31 0 70 -6q92 -14 98 -14q11 -1 16 -1q7 0 16 3l10 4v-244h-36l-4 18q-14 65 -54 122q-27 39 -54 56q-32 20 -80 20q-37 0 -62.5 -29.5t-25.5 -68.5q0 -49 42 -83q38 -31 111 -51l18 -5q58 -16 108.5 -46t72.5 -65z" />
    <glyph glyph-name="T" unicode="T" horiz-adv-x="745" 
d="M707 529l-32 -6q-6 24 -29.5 60.5t-39.5 51.5q-24 22 -45.5 33t-55.5 19l-12 3v-549q0 -46 5.5 -64t17.5 -27t28 -12.5t27 -3.5h7v-34h-415v34h7q14 0 29.5 4.5t24.5 11.5q15 11 19.5 25.5t4.5 36.5v29v549l-11 -2q-16 -3 -35 -11q-29 -12 -51 -31q-29 -24 -49 -57
t-26 -61l-38 7l50 221l32 -11q11 -4 13 -4q5 -1 22 -1h441q15 0 20 1q8 3 15 4l30 9z" />
    <glyph glyph-name="U" unicode="U" horiz-adv-x="750" 
d="M720 707h-14q-8 0 -15 -4t-17.5 -17t-13 -24t-2.5 -30v-20l26 -328q0 -143 -52 -214q-64 -88 -216 -88q-186 0 -270 81q-72 69 -72 200v23.5t2 26.5l30 320q0 26 -3.5 37.5t-13 20t-19.5 11t-26 2.5h-9v36h404v-35h-8q-18 0 -30.5 -4t-20.5 -11q-29 -26 -29 -57l-22 -382
q0 -79 31 -122q39 -53 129 -53q91 0 127 72q23 45 23 116l-25 350q0 24 -6.5 42.5t-23.5 31.5q-24 18 -52 18h-16v34h204v-33z" />
    <glyph glyph-name="V" unicode="V" horiz-adv-x="839" 
d="M810 705l-13 -2q-15 -2 -24 -6.5t-26 -18.5q-6 -4 -12 -12q-21 -24 -36 -64l-257 -641l-309 672q-5 12 -13 24t-20 23t-22 16t-30 7l-8 1v36h420v-37l-8 -1q-11 -1 -22.5 -1.5t-21 -9.5t-9.5 -25q0 -9 2 -17.5t5 -15.5l129 -325l108 276q16 39 16 70q0 18 -7.5 29
t-19.5 15t-28 4h-10v38h216v-35z" />
    <glyph glyph-name="W" unicode="W" horiz-adv-x="1136" 
d="M1102 705l-13 -2q-14 -2 -28 -3q-14 -3 -27 -13q-8 -6 -20 -24q-17 -25 -31 -61l-237 -616l-158 394l-138 -397l-312 650q-5 10 -9 17q-11 18 -25 30q-20 19 -60 23l-8 1v36h429v-35l-9 -1q-14 -2 -23.5 -3t-19.5 -11q-6 -5 -8 -12q-2 -6 -2 -16q0 -11 3.5 -23.5
t7.5 -22.5l114 -264l145 414l168 -408l89 226q15 39 15 71q0 19 -6 27q-9 13 -22 16.5t-33 3.5h-10v38h228v-35z" />
    <glyph glyph-name="X" unicode="X" horiz-adv-x="907" 
d="M867 0h-463v34h7q9 0 23 6t25.5 17.5t11.5 27.5q0 15 -11 35q-10 15 -13 21l-88 150l-90 -135q-20 -32 -20 -62q0 -11 3.5 -24t16 -22.5t29.5 -11.5l15 -2v-34h-280v34l16 3q23 4 41 13q9 4 37 22q33 21 57 47q18 20 45 61l105 157l-163 278q-7 13 -24 33q-20 24 -40 42
q-9 8 -24.5 10t-28.5 3l-8 1v36h411v-37h-8q-14 0 -21.5 -6.5t-7.5 -18.5q-1 -11 4 -23q9 -15 13 -22l63 -105l53 81q9 15 14.5 29.5t5.5 27.5q0 18 -10.5 26t-23.5 10t-27 2l-10 1v35h253v-35h-9q-22 0 -34.5 -3t-31.5 -14q-15 -8 -50 -49q-31 -36 -40 -51l-66 -101
l201 -337q18 -31 39 -56t41 -37q14 -9 30.5 -16t24.5 -7h7v-34z" />
    <glyph glyph-name="Y" unicode="Y" horiz-adv-x="816" 
d="M785 705h-10q-26 0 -53 -15q-18 -10 -43 -44q-31 -42 -71 -117l-57 -107v-281q0 -45 6 -63.5t17 -26.5t27.5 -12.5t25.5 -4.5h7v-34h-410v34h7q11 0 28.5 3.5t29.5 13t16.5 23t4.5 31.5q0 9 -0.5 18t-0.5 18v222l-152 250l-20 36q-18 27 -41 41q-9 5 -21 8t-32 5l-8 1v36
h439v-37h-8q-20 0 -27 -2q-6 -2 -16.5 -11.5t-10.5 -29.5q0 -7 2 -14t4 -13l100 -181l81 150q10 19 16 34.5t6 29.5q0 15 -7.5 23.5t-17.5 11t-27 2.5h-7l-1 37h224v-35z" />
    <glyph glyph-name="Z" unicode="Z" horiz-adv-x="695" 
d="M659 307l-17 -307h-605l306 690l-25 2q-40 0 -70.5 -7.5t-59.5 -24.5q-36 -22 -67 -66q-27 -38 -32 -65l-4 -18l-40 5l28 248q8 -5 15.5 -9.5t22.5 -8.5t27 -5t29 -1h466l-310 -688h18q58 0 99 18q25 11 69 45q38 30 66 76q36 60 40 93l5 23h39z" />
    <glyph glyph-name="bracketleft" unicode="[" horiz-adv-x="379" 
d="M348 -200h-313v940h309v-52h-124v-836h128v-52z" />
    <glyph glyph-name="backslash" unicode="\" horiz-adv-x="430" 
d="M392 -5h-40l-306 746h40z" />
    <glyph glyph-name="bracketright" unicode="]" horiz-adv-x="382" 
d="M347 -200h-313v52h128v836h-124v52h309v-940z" />
    <glyph glyph-name="asciicircum" unicode="^" horiz-adv-x="459" 
d="M428 528l-11 -12l-190 76l-180 -77l-8 12l190 211z" />
    <glyph glyph-name="underscore" unicode="_" horiz-adv-x="651" 
d="M656 -121h-656v62h656v-62z" />
    <glyph glyph-name="grave" unicode="`" horiz-adv-x="267" 
d="M232 542l-10 -11l-10 6q-72 40 -143 80q-31 19 -31 58q0 31 23 50q18 14 43 14q32 0 49 -20q9 -11 31 -61q28 -64 44 -107z" />
    <glyph glyph-name="a" unicode="a" horiz-adv-x="631" 
d="M600 44l-13 -12q-22 -20 -52 -30t-55 -10q-40 0 -69 12q-40 16 -53 51l-7 18l-19 -20q-32 -34 -74.5 -52t-78.5 -18q-65 0 -103 36t-38 97q0 52 40 93q32 32 105 69q2 1 142 65l13 6v20v34q0 46 -9 63q-13 24 -51 24q-39 0 -53 -26q-9 -16 -9 -51v-20q3 -37 -16 -65.5
t-58 -28.5q-29 0 -48.5 24.5t-19.5 57.5q6 64 77.5 109t154.5 45q114 0 176.5 -49.5t62.5 -144.5v-188q-1 -18 -1 -27q0 -20 5 -33t15 -16t20 -3q8 0 16 3v-33zM339 159v151l-13 -7q-40 -21 -63 -71q-19 -41 -19 -76q0 -29 14 -52.5t39 -23.5q23 0 34 26q8 20 8 53z" />
    <glyph glyph-name="b" unicode="b" horiz-adv-x="711" 
d="M656 269q0 -114 -72 -198.5t-172 -84.5q-13 0 -20 1q-54 5 -93 28t-78 69l-11 13l-65 -97h-51l3 7q3 9 4 13q3 9 5.5 26t2.5 40q0 11 -0.5 23t-0.5 25v354q1 13 1 22q0 25 -5.5 39t-19 27t-23.5 19q-17 10 -33 20l-16 10q22 6 67 23t94 38q23 10 60 29q51 26 72 38v-290
l15 14q29 27 55.5 38.5t64.5 11.5q88 0 152 -79t64 -179zM444 237v34q0 83 -9 121q-14 59 -55 59q-48 0 -62 -75q-7 -37 -7 -140q0 -12 -0.5 -24t-0.5 -25q0 -90 19 -122.5t55 -32.5q38 0 51 52q9 35 9 109v26.5v17.5z" />
    <glyph glyph-name="c" unicode="c" horiz-adv-x="553" 
d="M523 90l-18 -19q-42 -45 -88 -66.5t-107 -21.5q-112 0 -194 77t-82 186q0 112 84 198.5t183 86.5q80 0 143 -36q71 -40 71 -104q0 -11 -1 -16q-4 -35 -19 -55q-18 -24 -50 -29q-4 -1 -11 -1q-26 0 -50.5 16.5t-28 32.5t-3.5 22q0 10 2.5 33.5t2.5 29.5q0 29 -11 43
q-15 19 -54 19q-43 0 -61 -47q-13 -35 -13 -95q0 -97 62 -173t142 -76q25 0 47 7t33 18l21 21v-51z" />
    <glyph glyph-name="d" unicode="d" horiz-adv-x="697" 
d="M668 0h-245l-25 -8v74l-22 -23q-21 -25 -46 -37q-34 -16 -75 -16q-72 0 -133 55q-79 72 -79 206q0 112 59 192q65 88 168 88q26 0 51 -9.5t51 -30.5l12 -10v16q1 17 1 28q0 17 -3 31t-13 23.5t-27 22t-31 21.5l-20 14q72 19 105 31q44 18 73.5 29.5t61.5 26.5t66 32v-615
q0 -47 7.5 -67.5t23.5 -26.5l33 -11l7 -2v-34zM385 209v149q0 44 -13 71q-17 35 -53 35q-52 0 -61 -106q-3 -36 -3 -104v-20.5v-15.5q0 -92 13 -123t40 -31q5 0 15 2q42 11 55 55q7 24 7 88z" />
    <glyph glyph-name="e" unicode="e" horiz-adv-x="550" 
d="M516 339l-1 -38h-296l4 -27q10 -73 69.5 -124t123.5 -51q27 0 47.5 5.5t30.5 15.5l21 21v-51l-18 -19q-82 -88 -195 -88q-110 0 -189.5 77.5t-79.5 185.5q0 120 79.5 202.5t180.5 82.5q87 0 155 -58t68 -134zM368 389q0 42 -10 66q-17 40 -59 40q-46 0 -67 -40
q-17 -32 -17 -83l1 -23l19 -5q15 -4 35 -4q38 0 68 14t30 35z" />
    <glyph glyph-name="f" unicode="f" horiz-adv-x="504" 
d="M500 646q0 -27 -19.5 -50.5t-41.5 -23.5q-58 0 -93 59t-76 59q-15 0 -24.5 -13t-12.5 -33q-5 -26 21 -55q18 -17 26.5 -25.5t11.5 -12.5q5 -7 9 -19l4 -12h100v-50h-98v-329q0 -48 5.5 -68t20.5 -30q7 -4 21.5 -6.5t25.5 -2.5h7v-34h-355v34h7q10 0 21 2.5t22 9.5
q15 10 20 24.5t5 37.5q-1 22 -1 33v330h-55v31l8 8l15 15q8 8 11 13q90 125 96 131q78 80 182 80q48 0 89 -26q48 -31 48 -77z" />
    <glyph glyph-name="g" unicode="g" horiz-adv-x="630" 
d="M595 551q0 -22 -16.5 -39.5t-37.5 -17.5q-20 0 -60 28q-18 13 -31 10q-15 -3 -19 -7l-6 -7l10 -4q50 -14 88.5 -57.5t38.5 -101.5q0 -101 -82 -152q-64 -40 -153 -40q-57 0 -74 3t-64 20l-11 4l-12 -3q-17 -4 -28 -18t-11 -30q0 -22 19 -37t41 -12q4 1 133 43
q52 17 91 17q69 0 120 -41q58 -46 58 -122q0 -107 -82 -166q-77 -56 -204 -56q-128 0 -198 37q-56 30 -56 80q0 30 28 58l9 9l-8 8q-45 45 -45 115q0 48 26 82.5t74 55.5l9 4l-9 7q-28 22 -44.5 54.5t-16.5 72.5q0 84 79 138q72 49 169 49q15 0 35 -4t25 -4l10 -1l6 10
q24 41 52.5 61t71.5 20q29 0 52 -19t23 -47zM390 357q0 66 -8 91q-15 47 -63 47q-49 0 -63 -40q-9 -25 -9 -93q0 -77 8 -107q15 -56 64 -56q45 0 61 54q10 34 10 104zM442 -105q0 22 -13 37q-16 18 -46 18q-23 0 -64 -11q-93 -25 -120 -25q-21 0 -33.5 1.5t-22.5 5.5l-8 4
l-3 -9q-2 -8 -2 -12q0 -36 55 -65.5t112 -29.5q59 0 97 18q48 23 48 68z" />
    <glyph glyph-name="h" unicode="h" horiz-adv-x="737" 
d="M703 0h-311v34h7l16 1q14 3 19.5 19t5.5 40q0 12 -0.5 23.5t-0.5 23.5v182v11q0 8 1 17q0 35 -8 56q-12 30 -41 30q-35 0 -51.5 -34t-16.5 -78v-184q0 -45 2 -69.5t19.5 -31t19.5 -6.5h7v-34h-306v34h7q9 0 24.5 5t21 21.5t5.5 41.5q0 9 -0.5 19t-0.5 20v354q1 14 1 22
q0 16 -3.5 29.5t-12.5 23.5q-23 24 -32 32q-13 12 -33 26l-7 5q21 7 61 23t101 43q37 16 65 30q17 9 55 28v-315l10 11q69 75 152 75q9 -1 14 -1q99 -10 128 -66q18 -35 18 -132v-188q0 -90 27 -100q1 0 12.5 -3.5t17.5 -3.5h7v-34z" />
    <glyph glyph-name="i" unicode="i" horiz-adv-x="421" 
d="M222 550q-54 0 -84 34t-30 80q0 47 28 79q32 36 86 36t84 -34t30 -81q0 -46 -28 -78q-32 -36 -86 -36zM385 0h-329v34h7q9 0 26 5t23 22t6 46q0 8 -0.5 16.5t-0.5 17.5v147q1 18 1 30q0 17 -2 31t-9 20q-16 12 -33 26t-29 22l-11 8q26 8 65 21q53 18 99 37q25 10 57 25
t66 32v-399q0 -46 2 -70t19 -30q3 -1 17.5 -4t18.5 -3h7v-34z" />
    <glyph glyph-name="j" unicode="j" horiz-adv-x="400" 
d="M232 550q-54 0 -84 34t-30 80q0 47 28 79q32 36 86 36t84 -34t30 -81q0 -46 -28 -78q-32 -36 -86 -36zM337 141v-25v-20v-16q0 -50 -7.5 -117.5t-80.5 -133.5t-155 -74q-7 -1 -13 -1h-7q-64 0 -110 30q-51 33 -51 88q0 34 23 55t56 21q35 0 91 -105q25 -47 53 -41
q22 4 34.5 23.5t9.5 43.5t-24.5 67t-24 64.5t-2.5 61.5v16v210q0 23 -3 43.5t-14 31.5t-24 23.5t-34 22.5l-16 8q15 4 46 16q58 22 127 50q29 12 57 25q34 17 69 34v-401z" />
    <glyph glyph-name="k" unicode="k" horiz-adv-x="770" 
d="M735 0h-284l-123 239v-98q0 -46 2 -70t19 -30q1 0 14.5 -3.5t18.5 -3.5h7v-34h-325v34h7h14q6 1 13 4q18 9 23 35q2 11 2 30q0 9 -0.5 18.5t-0.5 19.5v354q1 14 1 22q0 13 -3.5 23.5t-13.5 20.5q-20 21 -28 27t-34 20l-9 5q19 6 68 26.5t102 46.5q29 14 72.5 38.5
t50.5 28.5v-474l13 9q51 35 80 68q38 43 44 87q5 36 -46 36h-9v37h276v-36h-14q-19 0 -45 -4t-42 -14q-29 -19 -53 -41q-30 -31 -49 -50l-6 -6l150 -255q12 -22 24 -36.5t32 -27.5q9 -6 18 -8.5t21 -2.5l13 -1v-34z" />
    <glyph glyph-name="l" unicode="l" horiz-adv-x="431" 
d="M395 0h-325v34h7q3 0 11.5 3t15.5 6q16 9 20.5 23t4.5 39q0 9 -0.5 18t-0.5 18v354q0 18 -4 34.5t-16 28.5q-22 21 -37 31t-28 19l-7 5q27 10 69 28q50 21 106 48q31 15 74 38q24 13 49 27v-613q0 -46 2 -70t19 -30q1 0 14.5 -3.5t18.5 -3.5h7v-34z" />
    <glyph glyph-name="m" unicode="m" horiz-adv-x="1062" 
d="M1033 0h-267v365q0 42 -13 62.5t-42 20.5q-27 0 -44.5 -23.5t-17.5 -54.5v-229q0 -96 27 -102q16 -3 33 -5h7v-34h-331v34h7q8 0 16.5 1.5t16.5 4.5q16 7 20.5 22t4.5 41q0 12 -0.5 21.5t-0.5 16.5v202q1 13 1 24q0 33 -9 52q-14 29 -47 29q-32 0 -46 -27t-14 -63v-358
h-270v34h7q22 0 35.5 5t19 21.5t5.5 41.5q0 9 -0.5 19t-0.5 20v146v15q0 14 -3.5 27t-16.5 26t-25 20q-21 12 -42 25l-7 5q12 4 69 28q63 27 106 48q15 8 62 33q23 13 43 24v-88l11 11q67 67 154 67q90 0 150 -67l9 -10l11 13q28 33 67 49t80 16q86 0 132 -49
q42 -45 42 -120v-219q0 -46 2 -70t19 -30q1 0 14.5 -3.5t18.5 -3.5h7v-34z" />
    <glyph glyph-name="n" unicode="n" horiz-adv-x="748" 
d="M715 0h-331v34h7q8 0 16.5 1.5t16.5 4.5q16 7 20.5 22t4.5 41q0 12 -0.5 21.5t-0.5 16.5v202q1 13 1 24q0 33 -9 52q-14 29 -47 29q-32 0 -46 -27t-14 -63v-358h-270v34h7q22 0 35.5 5t19 21.5t5.5 41.5q0 9 -0.5 19t-0.5 20v146v15q0 14 -3.5 27t-16.5 26t-25 20
q-21 12 -42 25l-7 5q12 4 69 28q63 27 106 48q15 8 62 33q23 13 43 24v-88l11 11q67 67 154 67q68 0 118 -46t50 -112v-229q0 -96 27 -102q16 -3 33 -5h7v-34z" />
    <glyph glyph-name="o" unicode="o" horiz-adv-x="663" 
d="M630 269q0 -122 -92 -205q-87 -79 -200 -79q-122 0 -212 83t-90 201q0 114 90 190.5t211 76.5q114 0 201 -75q92 -79 92 -192zM411 265q0 111 -8 153q-16 83 -68 83q-39 0 -58 -37q-22 -42 -22 -155v-22v-15v-51q0 -94 11 -133q18 -64 69 -64q46 0 64 50q13 36 13 112
q0 20 -0.5 40t-0.5 39z" />
    <glyph glyph-name="p" unicode="p" horiz-adv-x="714" 
d="M682 249q0 -109 -54 -175q-61 -74 -183 -85q-6 -1 -12 -1h-12q-44 0 -71 10l-19 8v-63q0 -46 2 -70t19 -30q2 -1 21 -4t24 -3h7v-34h-352v34h7q12 0 22 0.5t20 5.5q16 8 20.5 23t4.5 41q0 9 -0.5 18.5t-0.5 18.5v354q1 13 1 20q0 14 -4 24.5t-17 22.5q-21 21 -38.5 31
t-26.5 15l-8 5q20 6 70 24q57 21 108 42q27 11 69 31t49 23v-79l7 7q31 31 60 43t69 12q100 0 161 -81q57 -76 57 -188zM465 240v36.5t1 38.5q0 65 -11 96q-15 43 -56 43q-50 0 -63 -109q-5 -43 -5 -107q0 -18 -0.5 -36t-0.5 -37q0 -64 11 -93q16 -42 58 -42q40 0 56 38
q12 29 12 89q0 14 -1 42t-1 41z" />
    <glyph glyph-name="q" unicode="q" horiz-adv-x="686" 
d="M651 -200h-343v34h7h13q15 0 26 4q16 7 22 24t6 42q0 10 -0.5 20t-0.5 19v88l-24 -15q-50 -30 -102 -30q-93 0 -155.5 75.5t-62.5 174.5q0 124 72.5 205.5t183.5 81.5q37 0 67.5 -9.5t107.5 -53.5l12 -7l9 5q13 6 26 16q8 6 18 15t28 26t23 23v-595q0 -57 3.5 -77.5
t20.5 -26.5q9 -3 18 -4t18 -1h7v-34zM379 266q0 12 1 39t1 41q0 61 -11 91q-15 41 -54 41q-32 0 -49 -25q-20 -30 -20 -113v-37.5t1 -36.5q0 -16 -0.5 -32t-0.5 -32q0 -92 20 -125q17 -29 52 -29q37 0 51 44q10 31 10 98q0 14 -0.5 33t-0.5 43z" />
    <glyph glyph-name="r" unicode="r" horiz-adv-x="543" 
d="M510 452q0 -30 -20.5 -52.5t-49.5 -22.5q-18 0 -39 15q-47 33 -52 33q-12 0 -22.5 -20.5t-10.5 -50.5l1 -213q0 -46 2 -70t19 -30q3 -1 21.5 -4t21.5 -3h7v-34h-352v34h7q9 0 21 0.5t25 7.5t18 22t5 40q0 9 -0.5 18t-0.5 19v171q0 28 -1 34q-4 22 -19 37q-20 19 -34 29
q-2 2 -17 10l-7 4q11 4 58 22q58 23 99 40l112 50v-94l8 12q22 33 48 52q30 22 65 22q34 0 60.5 -22.5t26.5 -55.5z" />
    <glyph glyph-name="s" unicode="s" horiz-adv-x="525" 
d="M490 184q0 -95 -80 -153q-69 -50 -161 -50q-47 0 -92 9q-10 2 -86 21q-7 2 -14.5 2h-12.5h-8v182h38l1 -9q7 -66 72 -121q58 -49 104 -49q29 0 48 16t19 39q0 26 -18 45q-21 23 -78 44l-46 17q-68 25 -102 65.5t-34 101.5q0 86 76 141q66 48 150 48q56 0 80 -5
q49 -10 58 -11q13 -1 26 -1l11 2v-155h-35l-3 9q-17 52 -49 85q-42 43 -100 43q-22 0 -41 -15t-19 -36q0 -41 43 -63q8 -4 77 -26l30 -10q67 -22 104 -61q42 -44 42 -105z" />
    <glyph glyph-name="t" unicode="t" 
d="M442 517l-14 -53h-117v-273q0 -65 19 -93q16 -24 47 -24q7 0 20 4.5t17 5.5l7 3v-34l-9 -8q-33 -29 -86 -44q-42 -12 -79 -12q-53 5 -86 27q-18 12 -35 33q-13 15 -17 77.5t-4 119.5v217h-69l117 112l158 147v-215l64 2z" />
    <glyph glyph-name="u" unicode="u" horiz-adv-x="750" 
d="M704 0h-230l-28 -12l-5 79l-8 -8q-40 -40 -77 -59t-86 -19q-77 0 -117.5 46.5t-40.5 136.5q0 15 5 71q2 22 2 40q0 29 -6.5 49t-25.5 37q-23 21 -26 23t-28 17l-10 6l139 61q18 8 67 33q40 20 81 41v-382q0 -34 15.5 -60t46.5 -26q26 0 43 20t17 47v150v16
q0 18 -3.5 33.5t-14.5 25.5q-22 21 -27 25q-13 9 -28 19l-10 7q18 6 64 24q29 12 98 41l121 56v-397q0 -46 2 -70t19 -30q2 -1 20.5 -4t23.5 -3h7v-34z" />
    <glyph glyph-name="v" unicode="v" horiz-adv-x="702" 
d="M663 480q-17 0 -24.5 -1.5t-18.5 -8.5q-19 -13 -37 -42q-8 -13 -20 -41l-205 -414l-217 402q-12 23 -24 46.5t-29 40.5q-10 10 -25 13t-20 3h-7v38h367v-38h-7q-13 0 -22 -0.5t-17 -5.5t-8 -16q0 -10 6 -24t12 -27l77 -165l75 147q7 13 10.5 26t3.5 26q0 16 -6.5 24.5
t-19.5 11t-29 2.5h-9v39h194v-36z" />
    <glyph glyph-name="w" unicode="w" horiz-adv-x="962" 
d="M929 481h-9q-9 0 -16.5 -0.5t-19.5 -9.5q-6 -5 -9 -9q-21 -24 -41 -67l-189 -407l-161 289l-146 -290l-217 433q-4 9 -14 22q-14 19 -25 29t-39 10h-5v35h357v-34l-6 -1q-18 -3 -25 -4.5t-12.5 -6.5t-5.5 -17q0 -11 5 -26t10 -25l70 -146l138 278l151 -278l64 140
q6 12 8 22t2 19q0 19 -7.5 29t-18.5 12.5t-27 2.5h-7v35h195v-35z" />
    <glyph glyph-name="x" unicode="x" horiz-adv-x="768" 
d="M735 0h-410v34h7l27 3q24 4 24 22q0 9 -3.5 17t-11.5 21l-65 98l-48 -64q-12 -15 -18 -27.5t-6 -27.5q0 -10 4.5 -20.5t17.5 -16t30 -5.5h9v-34h-253v34l10 1q24 0 45 10q1 1 26.5 16t50.5 39q16 16 30 34l79 96l-101 157q-11 19 -28 39q-23 28 -40 37q-28 15 -51 15h-10
v38h377v-36l-9 -1q-16 -2 -21.5 -10t-5.5 -16t5 -18q1 -2 7 -11l54 -74l40 51q17 20 17 42q0 10 -6 19q-12 17 -31 17h-7v37h206v-38h-7q-16 0 -27.5 -2.5t-23.5 -9.5q-19 -11 -40 -32q-11 -11 -24 -27l-76 -89l128 -177q24 -34 48 -67q21 -27 35 -32q6 -2 19.5 -5t19.5 -3
h7v-34z" />
    <glyph glyph-name="y" unicode="y" horiz-adv-x="677" 
d="M644 478h-7q-10 0 -19 -4q-3 -1 -21 -11.5t-38 -48.5q-8 -15 -21 -46l-146 -308q-20 -42 -41.5 -75.5t-52.5 -71.5t-72 -62q-51 -30 -104 -30q-56 0 -91.5 28.5t-35.5 69.5q0 40 25 58.5t61 18.5q28 0 91 -46q30 -22 53 -22q37 0 57 31q16 24 23 68q1 5 1 14
q0 22 -7.5 44.5t-19.5 48.5l-131 253q-13 27 -22 40q-18 27 -31.5 34.5t-26.5 12t-24 4.5h-10v38h367v-38h-9q-21 0 -30 -12q-5 -6 -5 -16q0 -7 4 -18q1 -2 8 -18l73 -147l63 134q5 12 7.5 19.5t2.5 16.5q0 12 -6.5 22t-19 15t-25.5 5h-7v37h187v-38z" />
    <glyph glyph-name="z" unicode="z" horiz-adv-x="612" 
d="M578 516l-283 -479h10q39 0 81 19q26 12 60 36q41 29 65 66.5t29 75.5l2 15h35v-249h-542l279 473l-16 1q-23 0 -52.5 -10.5t-62 -31t-58.5 -59.5q-17 -26 -26 -53l-3 -9h-34l32 205h484z" />
    <glyph glyph-name="braceleft" unicode="{" horiz-adv-x="427" 
d="M391 -196l-43 -1q-61 0 -114 20t-65 48q-7 22 -10 35.5t-3 25.5v228q0 28 -8 48t-27 33t-42.5 21t-50.5 8q35 4 59 13.5t45 26.5q17 17 22 32.5t5 41.5v17v199q0 39 10.5 64.5t40.5 44.5t60.5 24.5t74.5 5.5l43 1q-19 0 -40 -20q-3 -3 -20 -25q-29 -39 -29 -89v-207
q0 -50 -39 -92q-20 -21 -21 -22q-12 -9 -36 -14q25 -3 34 -10q12 -14 24 -24q25 -19 33 -45q5 -17 5 -54v-220q0 -41 27 -66.5t29 -27.5q21 -18 36 -20z" />
    <glyph glyph-name="bar" unicode="|" horiz-adv-x="122" 
d="M91 -200h-56v940h56v-940z" />
    <glyph glyph-name="braceright" unicode="}" horiz-adv-x="417" 
d="M396 270q-28 0 -49.5 -7t-41.5 -21t-28.5 -34.5t-8.5 -47.5v-228q0 -16 -3 -28t-10 -33q-11 -26 -65.5 -47t-113.5 -21l-43 1q15 2 35 19q2 1 29.5 27.5t27.5 67.5v220q0 39 5.5 59t32.5 40q14 13 29 26q11 6 29 8q-25 5 -36 13q-13 14 -21 23q-39 42 -39 92v207
q0 50 -29 89q-20 26 -34 35.5t-26 9.5l43 -1q50 0 76.5 -5t57.5 -24.5t43 -48.5q9 -22 9 -61v-199q0 -38 3.5 -55t23.5 -36q19 -15 45.5 -25.5t58.5 -14.5z" />
    <glyph glyph-name="asciitilde" unicode="~" horiz-adv-x="486" 
d="M449 732l-2 -15q-6 -49 -28.5 -87.5t-52.5 -45.5q-7 -2 -21 -2q-33 0 -108 31t-111 31q-22 0 -44 -12t-28 -35l-4 -14h-17l2 17q6 52 27 87q25 41 63 49q18 3 34 3q48 0 120 -31.5t92 -31.5q23 0 39 12t22 34l3 10h14z" />
    <glyph glyph-name="nonbreakingspace" unicode="&#xa0;" horiz-adv-x="528" 
 />
    <glyph glyph-name="exclamdown" unicode="&#xa1;" horiz-adv-x="352" 
d="M176 361q-55 0 -85 33.5t-30 81.5q0 46 30.5 80.5t84.5 34.5t86 -36q29 -33 29 -79q0 -47 -28 -79q-32 -36 -87 -36zM318 1q0 -68 -39 -121q-43 -58 -106 -58q-62 0 -99 52.5t-37 126.5q0 79 35 158q50 95 77 154l6 13h44l5 -12q38 -67 64 -121q50 -104 50 -192z" />
    <glyph glyph-name="cent" unicode="&#xa2;" horiz-adv-x="568" 
d="M533 190l-25 -24l-20 -18q-9 -7 -17 -13t-19 -11l63 -179h-38l-59 162q-28 -13 -53 -18.5t-54 -5.5q-112 0 -194 77t-82 186q0 105 67 185q57 68 133 89l-41 120h40l41 -112l7 1l20 2q6 1 20 1q70 0 129 -39q65 -43 65 -103q0 -10 -1 -15q-4 -36 -18 -57q-17 -26 -47 -26
q-31 0 -57.5 17t-32.5 40q-1 7 -1.5 16t-0.5 25v24.5v11.5q0 21 -15 42q-18 25 -44 25l-12 -4l141 -394q33 0 58 10q13 5 33 22l14 12v-49zM384 204l-132 370l-5 -5q-17 -17 -23.5 -46.5t-6.5 -78.5q0 -94 47 -161q44 -63 111 -77z" />
    <glyph glyph-name="sterling" unicode="&#xa3;" horiz-adv-x="696" 
d="M661 191q-8 -90 -53.5 -146.5t-120.5 -56.5q-45 0 -77.5 12t-70.5 42l-10 8l-8 -8q-26 -26 -62 -41t-65 -15q-61 0 -103 35q-46 39 -46 100q0 66 54 110t124 44q42 0 78 -11l12 -4l-8 16q-6 11 -20.5 22.5t-22.5 17.5q-14 11 -51 27q-82 36 -93 44q-39 29 -58 60
q-22 35 -22 80q0 107 111 170q95 54 210 54q111 0 182 -40q87 -49 87 -146q0 -37 -15 -62q-19 -32 -60 -32q-30 0 -52.5 20.5t-22.5 48.5q0 9 1 22.5t1 18.5q0 64 -27.5 92.5t-79.5 28.5q-50 0 -83 -31t-33 -78q0 -41 31 -90q36 -49 46 -64l6 -9h111v-52h-92l2 -7
q4 -14 7 -21q11 -25 13 -36.5t4.5 -33t2.5 -36.5l-1 -11l9 -5q64 -35 93.5 -47.5t39.5 -12.5q46 0 68 30q18 24 18 62q0 12 -1 18l-2 14l49 -18v-12v-71zM287 87l-9 9q-21 22 -51 34.5t-52 12.5q-23 0 -38 -15t-15 -38q0 -26 20 -40.5t47 -14.5t51.5 13t40.5 32z" />
    <glyph glyph-name="yen" unicode="&#xa5;" horiz-adv-x="819" 
d="M785 705h-10q-26 0 -53 -15q-18 -10 -43 -44q-31 -42 -71 -117l-56 -104h107v-71h-108v-93h108v-70h-108v-50q0 -45 6 -63.5t17 -26.5t27.5 -12.5t25.5 -4.5h7v-34h-410v34h7q11 0 28.5 3.5t29.5 13t16.5 23t4.5 31.5q0 9 -0.5 18t-0.5 18v50h-107v70h107v93h-107v71h69
l-114 188l-20 36q-18 27 -41 41q-9 5 -21 8t-32 5l-8 1v36h439v-37h-8q-20 0 -27 -2q-6 -2 -16.5 -11.5t-10.5 -29.5q0 -7 2 -14t4 -13l100 -181l81 150q10 19 16 34.5t6 29.5q0 15 -7.5 23.5t-17.5 11t-27 2.5h-7l-1 37h224v-35z" />
    <glyph glyph-name="section" unicode="&#xa7;" horiz-adv-x="550" 
d="M517 225q0 -47 -21 -80.5t-65 -63.5l-32 -21q62 -47 62 -119q0 -70 -52.5 -116.5t-131.5 -46.5q-86 0 -140 57.5t-54 141.5h89q-1 -6 -1 -17q0 -17 6.5 -31t24.5 -30q32 -29 71 -29q52 0 81 42q18 24 18 48q0 39 -46 69l-217 144q-38 25 -55.5 63.5t-17.5 88.5
q0 46 21.5 80t63.5 60l26 16q-53 47 -53 121q0 66 55 110t127 44q85 0 137 -55t52 -139h-89q1 7 1 20q0 31 -13.5 51.5t-44.5 33.5q-23 9 -43 9q-27 0 -50 -16t-33 -42q-6 -17 -6 -32q0 -53 61 -89l155 -96q54 -33 82 -74q32 -46 32 -102zM421 223q0 46 -45 75l-176 114
l-19 -10q-25 -14 -40 -33.5t-15 -44.5q0 -26 13.5 -46t37.5 -37l169 -112l22 13q25 15 39 35t14 46z" />
    <glyph glyph-name="dieresis" unicode="&#xa8;" horiz-adv-x="420" 
d="M308 575q-37 0 -57.5 23.5t-20.5 55.5t20.5 55.5t57.5 23.5q36 0 58 -25q19 -22 19 -54t-20.5 -55.5t-56.5 -23.5zM116 575q-37 0 -57.5 23.5t-20.5 55.5t20.5 55.5t57.5 23.5q36 0 58 -25q19 -22 19 -54t-20.5 -55.5t-56.5 -23.5z" />
    <glyph glyph-name="copyright" unicode="&#xa9;" horiz-adv-x="810" 
d="M407 0q-174 0 -277 115q-93 104 -93 255q0 150 92 254q103 116 278 116t278 -115q93 -104 93 -255q0 -149 -93 -254q-103 -116 -278 -116zM407 39q156 0 248 103q83 93 83 228q0 134 -82 227q-92 104 -249 104q-156 0 -247 -103q-83 -94 -83 -228q0 -136 82 -228
q91 -103 248 -103zM589 295q-13 -72 -65 -115t-128 -43q-95 0 -143 72q-40 61 -40 158t49 163q54 73 148 73q64 0 113 -33.5t59 -92.5l2 -17h-43l-4 14q-9 42 -45 65.5t-83 23.5q-78 0 -118 -61q-34 -52 -34 -134q0 -86 24 -132q32 -62 110 -62q15 -1 19 -1q47 0 86 35
t50 87h43z" />
    <glyph glyph-name="ordfeminine" unicode="&#xaa;" horiz-adv-x="357" 
d="M321 411h-280v33h280v-33zM321 510l-7 -7q-11 -9 -27 -14.5t-27 -5.5q-20 0 -35 6q-21 9 -28 26l-3 9l-10 -10q-17 -17 -38.5 -26.5t-39.5 -9.5q-34 0 -53.5 18.5t-19.5 50.5q0 43 66 78q16 9 81 38l7 3v11v17q0 21 -1 25q-5 20 -30 20q-18 0 -25 -10.5t-7 -25.5
q1 -10 1 -14q0 -21 -9 -34.5t-29 -13.5q-15 0 -25 12t-10 27q0 34 37.5 58t81.5 24q58 0 90 -25t32 -75v-96v-12q0 -15 1 -18q2 -8 11 -10q8 -3 16 1v-17zM187 569v77l-6 -3q-16 -9 -27 -26q-15 -24 -15 -50q0 -16 7 -27.5t20 -11.5q12 0 16.5 11.5t4.5 29.5z" />
    <glyph glyph-name="guillemotleft" unicode="&#xab;" horiz-adv-x="548" 
d="M517 400l-153 -110l150 -106v-111l-213 166v106l216 160v-105zM246 400l-153 -110l150 -106v-111l-213 166v106l216 160v-105z" />
    <glyph glyph-name="logicalnot" unicode="&#xac;" horiz-adv-x="809" 
d="M775 0h-61v258h-680v57h741v-315z" />
    <glyph glyph-name="registered" unicode="&#xae;" horiz-adv-x="812" 
d="M407 0q-174 0 -277 115q-93 104 -93 255q0 150 92 254q103 116 278 116t278 -115q93 -104 93 -255q0 -149 -93 -254q-103 -116 -278 -116zM407 39q156 0 248 103q83 93 83 228q0 134 -82 227q-92 104 -249 104q-156 0 -247 -103q-83 -94 -83 -228q0 -136 82 -228
q91 -103 248 -103zM584 142h-46l-4 1q-9 18 -11 94.5t-37 95.5q-11 6 -23.5 8t-25.5 2h-19h-118v-201h-43v445h163q71 0 110 -21q53 -28 53 -95q0 -80 -74 -111q9 -5 19 -10q16 -10 23.5 -25t11 -30.5t3.5 -30.5q0 -8 -1 -24t-1 -25q0 -27 10 -56zM540 466q0 46 -36 67
q-29 17 -77 17h-127v-169h125q50 0 78 16q37 21 37 69z" />
    <glyph glyph-name="degree" unicode="&#xb0;" horiz-adv-x="285" 
d="M146 525q-51 0 -79 31.5t-28 75.5q0 43 28.5 75.5t78.5 32.5q51 0 79 -32t28 -76q0 -43 -26 -73q-30 -34 -81 -34zM147 565q32 0 50 20t18 48q0 29 -17 49t-51 20q-32 0 -50 -20t-18 -49q0 -28 18 -48t50 -20z" />
    <glyph glyph-name="plusminus" unicode="&#xb1;" horiz-adv-x="469" 
d="M434 279h-169v-163h-65v163h-158v64h158v171h66v-171h168v-64zM431 0h-397v57h397v-57z" />
    <glyph glyph-name="acute" unicode="&#xb4;" horiz-adv-x="261" 
d="M207 725q23 -19 23 -50q0 -39 -29.5 -57.5t-72 -40.5t-72.5 -40l-10 -6l-10 11l4 9q18 50 43 106q22 49 32 62q17 20 50 20q13 0 24 -4t18 -10z" />
    <glyph glyph-name="mu" unicode="&#xb5;" horiz-adv-x="606" 
d="M576 101l-6 -31q-8 -37 -44.5 -62.5t-70.5 -25.5q-8 0 -11 1q-35 5 -63 33t-28 66l-26 -28q-30 -30 -67 -49.5t-64 -19.5q-29 0 -60 13q-38 16 -59 46v-38q0 -30 18 -78t18 -88q0 -26 -14 -47t-38 -21q-22 0 -36 18.5t-14 43.5q0 32 8 58q23 75 24 80l3 28v516h87v-357
q0 -45 26 -77.5t68 -32.5q41 0 83 32q46 35 46 77v358h85v-403q0 -33 18 -61.5t45 -22.5q36 7 45 45l9 27h18z" />
    <glyph glyph-name="paragraph" unicode="&#xb6;" horiz-adv-x="555" 
d="M520 -190h-107v860h-70v-860h-106v529q-81 0 -140 58t-59 140q0 84 58.5 143.5t145.5 59.5h278v-930z" />
    <glyph glyph-name="periodcentered" unicode="&#xb7;" horiz-adv-x="296" 
d="M147 281q-54 0 -84.5 34.5t-30.5 80.5q0 48 29.5 82t85.5 34q55 0 87 -36q29 -32 29 -80q0 -46 -30.5 -80.5t-85.5 -34.5z" />
    <glyph glyph-name="periodcentered" unicode="&#x2219;" horiz-adv-x="296" 
d="M147 281q-54 0 -84.5 34.5t-30.5 80.5q0 48 29.5 82t85.5 34q55 0 87 -36q29 -32 29 -80q0 -46 -30.5 -80.5t-85.5 -34.5z" />
    <glyph glyph-name="ordmasculine" unicode="&#xba;" horiz-adv-x="381" 
d="M330 411h-280v33h280v-33zM349 626q0 -64 -47 -107t-106 -43q-64 0 -110.5 43.5t-46.5 106.5q0 59 47.5 99.5t109.5 40.5q59 0 106 -41t47 -99zM234 623v20q0 62 -9.5 83t-29.5 21q-26 0 -34 -27t-8 -70v-23v-26q0 -48 7.5 -76t34.5 -28q24 0 32 23t8 62q0 10 -0.5 20.5
t-0.5 20.5z" />
    <glyph glyph-name="guillemotright" unicode="&#xbb;" horiz-adv-x="551" 
d="M522 239l-213 -166v111l150 106l-153 110v105l216 -160v-106zM251 239l-213 -166v111l151 106l-154 110v105l216 -160v-106z" />
    <glyph glyph-name="questiondown" unicode="&#xbf;" horiz-adv-x="664" 
d="M394 366q-53 0 -82.5 33.5t-29.5 78.5q0 47 27 78q31 35 85 35t85 -35q28 -31 28 -78q0 -46 -28 -77q-31 -35 -85 -35zM630 3q0 -93 -87 -150q-79 -51 -186 -51q-120 0 -213 52q-111 62 -111 167q0 63 39 106q34 37 99 59q23 8 78 12.5t85 23.5t41 42q7 15 7 36v15v6h44
l1 -6l5 -52q0 -35 -17.5 -75.5t-34.5 -58.5q-54 -52 -107 -103q-21 -31 -21 -79q0 -42 31 -68t80 -26q65 0 85 44q14 30 14 112q0 35 23.5 57.5t56.5 22.5q36 0 62 -25t26 -61z" />
    <glyph glyph-name="Agrave" unicode="&#xc0;" horiz-adv-x="863" 
d="M835 0h-417v34h15q19 0 29.5 2.5t17.5 13.5q12 17 12 37q0 6 -2 15t-5 18l-44 122h-204l-30 -80q-1 -3 -4 -19t-3 -27q0 -27 9 -50q5 -13 24 -24t33 -9l6 1v-34h-238v32h8q18 0 31.5 6t29.5 20t32 43t27 65l157 433l-31 63l224 117l231 -659l6 -20q4 -13 13 -29
q13 -22 28.5 -29.5t32.5 -7.5h12v-34zM429 291l-86 246l-87 -246h173zM481 812l-10 -11l-10 6q-72 40 -143 80q-31 19 -31 58q0 31 23 50q18 14 43 14q32 0 49 -20q9 -11 31 -61q28 -64 44 -107z" />
    <glyph glyph-name="Aacute" unicode="&#xc1;" horiz-adv-x="864" 
d="M835 0h-417v34h15q19 0 29.5 2.5t17.5 13.5q12 17 12 37q0 6 -2 15t-5 18l-44 122h-204l-30 -80q-1 -3 -4 -19t-3 -27q0 -27 9 -50q5 -13 24 -24t33 -9l6 1v-34h-238v32h8q18 0 31.5 6t29.5 20t32 43t27 65l157 433l-31 63l224 117l231 -659l6 -20q4 -13 13 -29
q13 -22 28.5 -29.5t32.5 -7.5h12v-34zM429 291l-86 246l-87 -246h173zM486 995q23 -19 23 -50q0 -39 -29.5 -57.5t-72 -40.5t-72.5 -40l-10 -6l-10 11l4 9q18 50 43 106q22 49 32 62q17 20 50 20q13 0 24 -4t18 -10z" />
    <glyph glyph-name="Acircumflex" unicode="&#xc2;" horiz-adv-x="861" 
d="M835 0h-417v34h15q19 0 29.5 2.5t17.5 13.5q12 17 12 37q0 6 -2 15t-5 18l-44 122h-204l-30 -80q-1 -3 -4 -19t-3 -27q0 -27 9 -50q5 -13 24 -24t33 -9l6 1v-34h-238v32h8q18 0 31.5 6t29.5 20t32 43t27 65l157 433l-31 63l224 117l231 -659l6 -20q4 -13 13 -29
q13 -22 28.5 -29.5t32.5 -7.5h12v-34zM429 291l-86 246l-87 -246h173zM620 813l-11 -12l-190 76l-180 -77l-8 12l190 211z" />
    <glyph glyph-name="Atilde" unicode="&#xc3;" horiz-adv-x="866" 
d="M835 0h-417v34h15q19 0 29.5 2.5t17.5 13.5q12 17 12 37q0 6 -2 15t-5 18l-44 122h-204l-30 -80q-1 -3 -4 -19t-3 -27q0 -27 9 -50q5 -13 24 -24t33 -9l6 1v-34h-238v32h8q18 0 31.5 6t29.5 20t32 43t27 65l157 433l-31 63l224 117l231 -659l6 -20q4 -13 13 -29
q13 -22 28.5 -29.5t32.5 -7.5h12v-34zM429 291l-86 246l-87 -246h173zM632 961l-2 -15q-6 -49 -28.5 -87.5t-52.5 -45.5q-7 -2 -21 -2q-33 0 -108 31t-111 31q-22 0 -44 -12t-28 -35l-4 -14h-17l2 17q6 52 27 87q25 41 63 49q18 3 34 3q48 0 120 -31.5t92 -31.5q23 0 39 12
t22 34l3 10h14z" />
    <glyph glyph-name="Adieresis" unicode="&#xc4;" horiz-adv-x="872" 
d="M835 0h-417v34h15q19 0 29.5 2.5t17.5 13.5q12 17 12 37q0 6 -2 15t-5 18l-44 122h-204l-30 -80q-1 -3 -4 -19t-3 -27q0 -27 9 -50q5 -13 24 -24t33 -9l6 1v-34h-238v32h8q18 0 31.5 6t29.5 20t32 43t27 65l157 433l-31 63l224 117l231 -659l6 -20q4 -13 13 -29
q13 -22 28.5 -29.5t32.5 -7.5h12v-34zM429 291l-86 246l-87 -246h173zM512 801q-32 0 -50 20.5t-18 49.5q0 28 18 49t50 21t50 -20.5t18 -49.5q0 -28 -18 -49t-50 -21zM343 801q-32 0 -50 20.5t-18 49.5q0 28 18 49t50 21t50 -20.5t18 -49.5q0 -28 -18 -49t-50 -21z" />
    <glyph glyph-name="Aring" unicode="&#xc5;" horiz-adv-x="866" 
d="M835 0h-417v34h15q19 0 29.5 2.5t17.5 13.5q12 17 12 37q0 6 -2 15t-5 18l-44 122h-204l-30 -80q-1 -3 -4 -19t-3 -27q0 -27 9 -50q5 -13 24 -24t33 -9l6 1v-34h-238v32h8q18 0 31.5 6t29.5 20t32 43t27 65l157 433l-31 63l224 117l231 -659l6 -20q4 -13 13 -29
q13 -22 28.5 -29.5t32.5 -7.5h12v-34zM429 291l-86 246l-87 -246h173zM432 801q-44 0 -69 28.5t-25 66.5q0 39 24.5 67.5t69.5 28.5t70 -28.5t25 -67.5t-23 -65q-26 -30 -72 -30zM433 837q29 0 45 18t16 43t-16 43t-45 18q-28 0 -44 -18t-16 -43t16 -43t44 -18z" />
    <glyph glyph-name="AE" unicode="&#xc6;" horiz-adv-x="1197" 
d="M1167 215l-58 -215h-686l12 34h15q19 0 30.5 2.5t22.5 13.5q18 18 27.5 34.5t9.5 35.5v122h-212l-58 -80q-10 -13 -21 -43.5t-11 -52.5q0 -13 15 -24t30 -9l6 1l-12 -34h-236l12 32h7q20 0 42 10q11 5 26 15q31 21 63 60q30 41 36 49l310 433l16 34q0 17 -5 31.5
t-15.5 24t-26 11.5t-28.5 3l-8 1v36h472h16q14 0 26 1t26 5t21 8t25 16q6 -28 11.5 -50t15.5 -55q4 -15 15 -45q6 -18 17 -45l-32 -17q-17 30 -49 61q-35 34 -66 47q-38 16 -50 19q-37 10 -94 10h-26v-254q8 -2 26 -2q26 0 50.5 4.5t43 16.5t26.5 28.5t11 40.5h36v-239h-39
q-3 31 -11 46t-30.5 33t-65.5 26q-22 4 -36 4q-8 -1 -11 -1v-257q0 -40 17 -60q21 -25 71 -29q6 -1 18 -1q65 0 122 43q65 49 96 116l11 23zM539 291v246l-174 -246h174z" />
    <glyph glyph-name="Ccedilla" unicode="&#xc7;" horiz-adv-x="759" 
d="M721 25h-13h-17q-13 -3 -28 -5q-68 -13 -108 -20q-73 -13 -113 -13h-18q-7 0 -16 1t-17 2l4 -49h8q13 0 29.5 -2.5t33.5 -9t26 -23t9 -34.5q0 -26 -15 -43q-22 -25 -50.5 -35.5t-65.5 -10.5t-57 7q-38 13 -49 51q-3 9 8.5 23t25.5 12q22 -3 37 -32t42 -29q17 0 28.5 7
t11.5 25q0 31 -41 37q-18 -1 -28 -2l-6 -1l26 113q-147 22 -240 128t-93 253q0 158 119 265t287 107q60 0 109.5 -10t99.5 -21l34 1l16 2v-243h-36l-4 22q-15 84 -71 145q-59 65 -133 65q-75 0 -115 -54q-33 -44 -44 -128q-7 -53 -7 -151q0 -107 6 -155q11 -86 44 -133
q40 -57 115 -57q79 0 146 76q64 72 74 158l3 24h42z" />
    <glyph glyph-name="Egrave" unicode="&#xc8;" horiz-adv-x="759" 
d="M729 215l-58 -215h-641v34h7q12 0 27.5 4t26.5 12q15 11 19.5 25.5t4.5 36.5v29v492q0 17 -5 31.5t-15.5 24t-26 11.5t-28.5 3l-8 1v36h472h16q14 0 26 1t26 5t21 8t25 16q6 -28 11.5 -50t15.5 -55q4 -15 15 -45q6 -18 17 -45l-32 -17q-17 30 -49 61q-35 34 -66 47
q-38 16 -50 19q-37 10 -94 10h-26v-254q8 -2 26 -2q26 0 50.5 4.5t43 16.5t26.5 28.5t11 40.5h36v-239h-39q-3 31 -11 46t-30.5 33t-65.5 26q-22 4 -36 4q-8 -1 -11 -1v-257q0 -40 17 -60q21 -25 71 -29q6 -1 18 -1q65 0 122 43q65 49 96 116l11 23zM415 812l-10 -11l-10 6
q-72 40 -143 80q-31 19 -31 58q0 31 23 50q18 14 43 14q32 0 49 -20q9 -11 31 -61q28 -64 44 -107z" />
    <glyph glyph-name="Eacute" unicode="&#xc9;" horiz-adv-x="777" 
d="M738 215l-58 -215h-641v34h7q12 0 27.5 4t26.5 12q15 11 19.5 25.5t4.5 36.5v29v492q0 17 -5 31.5t-15.5 24t-26 11.5t-28.5 3l-8 1v36h472h16q14 0 26 1t26 5t21 8t25 16q6 -28 11.5 -50t15.5 -55q4 -15 15 -45q6 -18 17 -45l-32 -17q-17 30 -49 61q-35 34 -66 47
q-38 16 -50 19q-37 10 -94 10h-26v-254q8 -2 26 -2q26 0 50.5 4.5t43 16.5t26.5 28.5t11 40.5h36v-239h-39q-3 31 -11 46t-30.5 33t-65.5 26q-22 4 -36 4q-8 -1 -11 -1v-257q0 -40 17 -60q21 -25 71 -29q6 -1 18 -1q65 0 122 43q65 49 96 116l11 23zM471 987q23 -19 23 -50
q0 -39 -29.5 -57.5t-72 -40.5t-72.5 -40l-10 -6l-10 11l4 9q18 50 43 106q22 49 32 62q17 20 50 20q13 0 24 -4t18 -10z" />
    <glyph glyph-name="Ecircumflex" unicode="&#xca;" horiz-adv-x="756" 
d="M729 215l-58 -215h-641v34h7q12 0 27.5 4t26.5 12q15 11 19.5 25.5t4.5 36.5v29v492q0 17 -5 31.5t-15.5 24t-26 11.5t-28.5 3l-8 1v36h472h16q14 0 26 1t26 5t21 8t25 16q6 -28 11.5 -50t15.5 -55q4 -15 15 -45q6 -18 17 -45l-32 -17q-17 30 -49 61q-35 34 -66 47
q-38 16 -50 19q-37 10 -94 10h-26v-254q8 -2 26 -2q26 0 50.5 4.5t43 16.5t26.5 28.5t11 40.5h36v-239h-39q-3 31 -11 46t-30.5 33t-65.5 26q-22 4 -36 4q-8 -1 -11 -1v-257q0 -40 17 -60q21 -25 71 -29q6 -1 18 -1q65 0 122 43q65 49 96 116l11 23zM527 813l-11 -12
l-190 76l-180 -77l-8 12l190 211z" />
    <glyph glyph-name="Edieresis" unicode="&#xcb;" horiz-adv-x="756" 
d="M729 215l-58 -215h-641v34h7q12 0 27.5 4t26.5 12q15 11 19.5 25.5t4.5 36.5v29v492q0 17 -5 31.5t-15.5 24t-26 11.5t-28.5 3l-8 1v36h472h16q14 0 26 1t26 5t21 8t25 16q6 -28 11.5 -50t15.5 -55q4 -15 15 -45q6 -18 17 -45l-32 -17q-17 30 -49 61q-35 34 -66 47
q-38 16 -50 19q-37 10 -94 10h-26v-254q8 -2 26 -2q26 0 50.5 4.5t43 16.5t26.5 28.5t11 40.5h36v-239h-39q-3 31 -11 46t-30.5 33t-65.5 26q-22 4 -36 4q-8 -1 -11 -1v-257q0 -40 17 -60q21 -25 71 -29q6 -1 18 -1q65 0 122 43q65 49 96 116l11 23zM416 800
q-37 0 -57.5 23.5t-20.5 55.5t20.5 55.5t57.5 23.5q36 0 58 -25q19 -22 19 -54t-20.5 -55.5t-56.5 -23.5zM224 800q-37 0 -57.5 23.5t-20.5 55.5t20.5 55.5t57.5 23.5q36 0 58 -25q19 -22 19 -54t-20.5 -55.5t-56.5 -23.5z" />
    <glyph glyph-name="Igrave" unicode="&#xcc;" 
d="M446 0h-415v34h7q12 0 27.5 4t26.5 12q15 11 19.5 25.5t4.5 36.5v29v492q0 17 -5 31.5t-15.5 24t-27 11.5t-29.5 3l-8 1v36h415v-37h-8q-22 0 -34 -2t-22 -11.5t-15.5 -25.5t-5.5 -31v-492q0 -45 6 -63.5t17 -26.5t29 -12.5t26 -4.5h7v-34zM352 812l-10 -11l-10 6
q-72 40 -143 80q-31 19 -31 58q0 31 23 50q18 14 43 14q32 0 49 -20q9 -11 31 -61q28 -64 44 -107z" />
    <glyph glyph-name="Iacute" unicode="&#xcd;" 
d="M446 0h-415v34h7q12 0 27.5 4t26.5 12q15 11 19.5 25.5t4.5 36.5v29v492q0 17 -5 31.5t-15.5 24t-27 11.5t-29.5 3l-8 1v36h415v-37h-8q-22 0 -34 -2t-22 -11.5t-15.5 -25.5t-5.5 -31v-492q0 -45 6 -63.5t17 -26.5t29 -12.5t26 -4.5h7v-34zM339 995q23 -19 23 -50
q0 -39 -29.5 -57.5t-72 -40.5t-72.5 -40l-10 -6l-10 11l4 9q18 50 43 106q22 49 32 62q17 20 50 20q13 0 24 -4t18 -10z" />
    <glyph glyph-name="Icircumflex" unicode="&#xce;" 
d="M446 0h-415v34h7q12 0 27.5 4t26.5 12q15 11 19.5 25.5t4.5 36.5v29v492q0 17 -5 31.5t-15.5 24t-27 11.5t-29.5 3l-8 1v36h415v-37h-8q-22 0 -34 -2t-22 -11.5t-15.5 -25.5t-5.5 -31v-492q0 -45 6 -63.5t17 -26.5t29 -12.5t26 -4.5h7v-34zM446 813l-11 -12l-190 76
l-180 -77l-8 12l190 211z" />
    <glyph glyph-name="Idieresis" unicode="&#xcf;" 
d="M446 0h-415v34h7q12 0 27.5 4t26.5 12q15 11 19.5 25.5t4.5 36.5v29v492q0 17 -5 31.5t-15.5 24t-27 11.5t-29.5 3l-8 1v36h415v-37h-8q-22 0 -34 -2t-22 -11.5t-15.5 -25.5t-5.5 -31v-492q0 -45 6 -63.5t17 -26.5t29 -12.5t26 -4.5h7v-34zM338 797q-37 0 -57.5 23.5
t-20.5 55.5t20.5 55.5t57.5 23.5q36 0 58 -25q19 -22 19 -54t-20.5 -55.5t-56.5 -23.5zM146 797q-37 0 -57.5 23.5t-20.5 55.5t20.5 55.5t57.5 23.5q36 0 58 -25q19 -22 19 -54t-20.5 -55.5t-56.5 -23.5z" />
    <glyph glyph-name="Ntilde" unicode="&#xd1;" horiz-adv-x="846" 
d="M813 704h-10q-18 0 -27 -2.5t-22 -12.5t-18 -36t-5 -47v-606h-110l-415 573v-414q0 -35 10.5 -66t28.5 -43q10 -6 26.5 -11t30.5 -5h7v-34h-251v34h7q21 0 38.5 5.5t30.5 16.5q17 14 21 45.5t4 57.5v474q0 11 -13 25q-1 1 -28 25q-10 9 -33 15t-46 6h-8v36h371l279 -392
v258q0 28 -8 51.5t-21.5 32.5t-28.5 11.5t-33 2.5h-7v36h230v-36zM650 956l-2 -15q-6 -49 -28.5 -87.5t-52.5 -45.5q-7 -2 -21 -2q-33 0 -108 31t-111 31q-22 0 -44 -12t-28 -35l-4 -14h-17l2 17q6 52 27 87q25 41 63 49q18 3 34 3q48 0 120 -31.5t92 -31.5q23 0 39 12
t22 34l3 10h14z" />
    <glyph glyph-name="Ograve" unicode="&#xd2;" horiz-adv-x="852" 
d="M823 372q0 -174 -120 -285q-113 -105 -270 -105q-161 0 -280 110t-119 268q0 163 116.5 279.5t279.5 116.5q155 0 274 -114t119 -270zM574 366q0 101 -5 149q-9 87 -36 131q-34 56 -100 56q-91 0 -124 -89q-22 -60 -22 -187v-54q0 -109 4 -151q8 -88 36 -132
q35 -56 106 -56q99 0 127 114q14 56 14 219zM520 812l-10 -11l-10 6q-72 40 -143 80q-31 19 -31 58q0 31 23 50q18 14 43 14q32 0 49 -20q9 -11 31 -61q28 -64 44 -107z" />
    <glyph glyph-name="Oacute" unicode="&#xd3;" horiz-adv-x="849" 
d="M823 372q0 -174 -120 -285q-113 -105 -270 -105q-161 0 -280 110t-119 268q0 163 116.5 279.5t279.5 116.5q155 0 274 -114t119 -270zM574 366q0 101 -5 149q-9 87 -36 131q-34 56 -100 56q-91 0 -124 -89q-22 -60 -22 -187v-54q0 -109 4 -151q8 -88 36 -132
q35 -56 106 -56q99 0 127 114q14 56 14 219zM492 995q23 -19 23 -50q0 -39 -29.5 -57.5t-72 -40.5t-72.5 -40l-10 -6l-10 11l4 9q18 50 43 106q22 49 32 62q17 20 50 20q13 0 24 -4t18 -10z" />
    <glyph glyph-name="Ocircumflex" unicode="&#xd4;" horiz-adv-x="849" 
d="M823 372q0 -174 -120 -285q-113 -105 -270 -105q-161 0 -280 110t-119 268q0 163 116.5 279.5t279.5 116.5q155 0 274 -114t119 -270zM574 366q0 101 -5 149q-9 87 -36 131q-34 56 -100 56q-91 0 -124 -89q-22 -60 -22 -187v-54q0 -109 4 -151q8 -88 36 -132
q35 -56 106 -56q99 0 127 114q14 56 14 219zM608 813l-11 -12l-190 76l-180 -77l-8 12l190 211z" />
    <glyph glyph-name="Otilde" unicode="&#xd5;" horiz-adv-x="855" 
d="M823 372q0 -174 -120 -285q-113 -105 -270 -105q-161 0 -280 110t-119 268q0 163 116.5 279.5t279.5 116.5q155 0 274 -114t119 -270zM574 366q0 101 -5 149q-9 87 -36 131q-34 56 -100 56q-91 0 -124 -89q-22 -60 -22 -187v-54q0 -109 4 -151q8 -88 36 -132
q35 -56 106 -56q99 0 127 114q14 56 14 219zM626 948l-2 -15q-6 -49 -28.5 -87.5t-52.5 -45.5q-7 -2 -21 -2q-33 0 -108 31t-111 31q-22 0 -44 -12t-28 -35l-4 -14h-17l2 17q6 52 27 87q25 41 63 49q18 3 34 3q48 0 120 -31.5t92 -31.5q23 0 39 12t22 34l3 10h14z" />
    <glyph glyph-name="Odieresis" unicode="&#xd6;" horiz-adv-x="855" 
d="M823 372q0 -174 -120 -285q-113 -105 -270 -105q-161 0 -280 110t-119 268q0 163 116.5 279.5t279.5 116.5q155 0 274 -114t119 -270zM574 366q0 101 -5 149q-9 87 -36 131q-34 56 -100 56q-91 0 -124 -89q-22 -60 -22 -187v-54q0 -109 4 -151q8 -88 36 -132
q35 -56 106 -56q99 0 127 114q14 56 14 219zM514 801q-32 0 -50 20t-18 49q0 28 18 49t50 21q31 0 49 -21t18 -49t-17.5 -48.5t-49.5 -20.5zM346 801q-32 0 -50 20t-18 49q0 28 18 49t50 21q31 0 49 -21t18 -49t-17.5 -48.5t-49.5 -20.5z" />
    <glyph glyph-name="Oslash" unicode="&#xd8;" horiz-adv-x="861" 
d="M823 372q0 -174 -120 -285q-113 -105 -270 -105q-67 0 -130 20l-43 -106h-40l49 119q-104 46 -168 137q-67 95 -67 208q0 163 116.5 279.5t279.5 116.5q35 0 66.5 -6t64.5 -18l43 105h40l-49 -120q101 -48 164.5 -141t63.5 -204zM528 652q-32 50 -95 50q-91 0 -124 -89
q-22 -60 -22 -187v-54q0 -100 3.5 -151.5t21.5 -99.5zM574 366q0 82 -4 139t-20 102l-216 -529q34 -45 99 -45q99 0 127 114q14 56 14 219z" />
    <glyph glyph-name="Ugrave" unicode="&#xd9;" horiz-adv-x="753" 
d="M720 707h-14q-8 0 -15 -4t-17.5 -17t-13 -24t-2.5 -30v-20l26 -328q0 -143 -52 -214q-64 -88 -216 -88q-186 0 -270 81q-72 69 -72 200v23.5t2 26.5l30 320q0 26 -3.5 37.5t-13 20t-19.5 11t-26 2.5h-9v36h404v-35h-8q-18 0 -30.5 -4t-20.5 -11q-29 -26 -29 -57l-22 -382
q0 -79 31 -122q39 -53 129 -53q91 0 127 72q23 45 23 116l-25 350q0 24 -6.5 42.5t-23.5 31.5q-24 18 -52 18h-16v34h204v-33zM490 812l-10 -11l-10 6q-72 40 -143 80q-31 19 -31 58q0 31 23 50q18 14 43 14q32 0 49 -20q9 -11 31 -61q28 -64 44 -107z" />
    <glyph glyph-name="Uacute" unicode="&#xda;" horiz-adv-x="753" 
d="M720 707h-14q-8 0 -15 -4t-17.5 -17t-13 -24t-2.5 -30v-20l26 -328q0 -143 -52 -214q-64 -88 -216 -88q-186 0 -270 81q-72 69 -72 200v23.5t2 26.5l30 320q0 26 -3.5 37.5t-13 20t-19.5 11t-26 2.5h-9v36h404v-35h-8q-18 0 -30.5 -4t-20.5 -11q-29 -26 -29 -57l-22 -382
q0 -79 31 -122q39 -53 129 -53q91 0 127 72q23 45 23 116l-25 350q0 24 -6.5 42.5t-23.5 31.5q-24 18 -52 18h-16v34h204v-33zM489 995q23 -19 23 -50q0 -39 -29.5 -57.5t-72 -40.5t-72.5 -40l-10 -6l-10 11l4 9q18 50 43 106q22 49 32 62q17 20 50 20q13 0 24 -4t18 -10z
" />
    <glyph glyph-name="Ucircumflex" unicode="&#xdb;" horiz-adv-x="753" 
d="M720 707h-14q-8 0 -15 -4t-17.5 -17t-13 -24t-2.5 -30v-20l26 -328q0 -143 -52 -214q-64 -88 -216 -88q-186 0 -270 81q-72 69 -72 200v23.5t2 26.5l30 320q0 26 -3.5 37.5t-13 20t-19.5 11t-26 2.5h-9v36h404v-35h-8q-18 0 -30.5 -4t-20.5 -11q-29 -26 -29 -57l-22 -382
q0 -79 31 -122q39 -53 129 -53q91 0 127 72q23 45 23 116l-25 350q0 24 -6.5 42.5t-23.5 31.5q-24 18 -52 18h-16v34h204v-33zM590 813l-11 -12l-190 76l-180 -77l-8 12l190 211z" />
    <glyph glyph-name="Udieresis" unicode="&#xdc;" horiz-adv-x="752" 
d="M720 707h-14q-8 0 -15 -4t-17.5 -17t-13 -24t-2.5 -30v-20l26 -328q0 -143 -52 -214q-64 -88 -216 -88q-186 0 -270 81q-72 69 -72 200v23.5t2 26.5l30 320q0 26 -3.5 37.5t-13 20t-19.5 11t-26 2.5h-9v36h404v-35h-8q-18 0 -30.5 -4t-20.5 -11q-29 -26 -29 -57l-22 -382
q0 -79 31 -122q39 -53 129 -53q91 0 127 72q23 45 23 116l-25 350q0 24 -6.5 42.5t-23.5 31.5q-24 18 -52 18h-16v34h204v-33zM518 801q-32 0 -50 20.5t-18 49.5q0 28 18 49t50 21t50 -20.5t18 -49.5q0 -28 -18 -49t-50 -21zM349 801q-32 0 -50 20.5t-18 49.5q0 28 18 49
t50 21t50 -20.5t18 -49.5q0 -28 -18 -49t-50 -21z" />
    <glyph glyph-name="germandbls" unicode="&#xdf;" horiz-adv-x="727" 
d="M656 56q-58 -96 -157 -171q-107 -81 -192 -81q-60 0 -100 22q-47 26 -47 74q0 28 19.5 48.5t47.5 20.5q38 0 100 -70q27 -31 58 -27q65 8 90 56t25 146q0 97 -33 211t-59 131q-12 8 -17 11q-10 6 -18 8l-12 3l15 5q37 12 44 16q31 19 31 80q0 70 -21 112q-24 48 -72 48
q-33 0 -53.5 -30t-20.5 -68q0 -42 8 -69t31 -72q6 -11 6 -21q-1 -9 -1 -15v-282q0 -38 4 -61.5t20 -33.5q10 -6 22.5 -9.5t21.5 -3.5h7v-34h-352v34h7h13q16 0 27 4q17 7 22.5 22.5t5.5 39.5q0 9 -0.5 18t-0.5 18v197q0 13 -8.5 32t-22.5 31q-7 7 -22 16.5t-27 17.5l-13 9
l17 10q26 14 50 34q33 27 66 75q80 115 87 122q32 33 78.5 52.5t94.5 19.5q74 0 125 -41q58 -47 58 -129q0 -42 -36 -82t-86 -55l-16 -5l15 -1q46 0 80.5 -16t71.5 -51q29 -29 43 -70.5t14 -91.5q0 -44 -10 -84.5t-28 -69.5z" />
    <glyph glyph-name="agrave" unicode="&#xe0;" horiz-adv-x="633" 
d="M600 44l-13 -12q-22 -20 -52 -30t-55 -10q-40 0 -69 12q-40 16 -53 51l-7 18l-19 -20q-32 -34 -74.5 -52t-78.5 -18q-65 0 -103 36t-38 97q0 52 40 93q32 32 105 69q2 1 142 65l13 6v20v34q0 46 -9 63q-13 24 -51 24q-39 0 -53 -26q-9 -16 -9 -51v-20q3 -37 -16 -65.5
t-58 -28.5q-29 0 -48.5 24.5t-19.5 57.5q6 64 77.5 109t154.5 45q114 0 176.5 -49.5t62.5 -144.5v-188q-1 -18 -1 -27q0 -20 5 -33t15 -16t20 -3q8 0 16 3v-33zM339 159v151l-13 -7q-40 -21 -63 -71q-19 -41 -19 -76q0 -29 14 -52.5t39 -23.5q23 0 34 26q8 20 8 53zM422 604
l-10 -10l-9 5q-19 11 -69 38q-34 18 -65.5 37.5t-31.5 56.5q0 30 22 48q17 14 41 14q30 0 47 -20q12 -15 41 -85q15 -38 30 -75z" />
    <glyph glyph-name="aacute" unicode="&#xe1;" horiz-adv-x="633" 
d="M600 44l-13 -12q-22 -20 -52 -30t-55 -10q-40 0 -69 12q-40 16 -53 51l-7 18l-19 -20q-32 -34 -74.5 -52t-78.5 -18q-65 0 -103 36t-38 97q0 52 40 93q32 32 105 69q2 1 142 65l13 6v20v34q0 46 -9 63q-13 24 -51 24q-39 0 -53 -26q-9 -16 -9 -51v-20q3 -37 -16 -65.5
t-58 -28.5q-29 0 -48.5 24.5t-19.5 57.5q6 64 77.5 109t154.5 45q114 0 176.5 -49.5t62.5 -144.5v-188q-1 -18 -1 -27q0 -20 5 -33t15 -16t20 -3q8 0 16 3v-33zM339 159v151l-13 -7q-40 -21 -63 -71q-19 -41 -19 -76q0 -29 14 -52.5t39 -23.5q23 0 34 26q8 20 8 53zM385 780
q10 -8 16 -21t6 -27q0 -37 -30 -55q-24 -15 -51 -30q-75 -41 -85 -47l-10 -6l-10 11l4 8q19 53 40 100t32 61q15 20 48 20q21 0 40 -14z" />
    <glyph glyph-name="acircumflex" unicode="&#xe2;" horiz-adv-x="632" 
d="M600 44l-13 -12q-22 -20 -52 -30t-55 -10q-40 0 -69 12q-40 16 -53 51l-7 18l-19 -20q-32 -34 -74.5 -52t-78.5 -18q-65 0 -103 36t-38 97q0 52 40 93q32 32 105 69q2 1 142 65l13 6v20v34q0 46 -9 63q-13 24 -51 24q-39 0 -53 -26q-9 -16 -9 -51v-20q3 -37 -16 -65.5
t-58 -28.5q-29 0 -48.5 24.5t-19.5 57.5q6 64 77.5 109t154.5 45q114 0 176.5 -49.5t62.5 -144.5v-188q-1 -18 -1 -27q0 -20 5 -33t15 -16t20 -3q8 0 16 3v-33zM339 159v151l-13 -7q-40 -21 -63 -71q-19 -41 -19 -76q0 -29 14 -52.5t39 -23.5q23 0 34 26q8 20 8 53zM512 606
l-11 -12l-190 76l-180 -77l-8 12l190 211z" />
    <glyph glyph-name="atilde" unicode="&#xe3;" horiz-adv-x="632" 
d="M600 44l-13 -12q-22 -20 -52 -30t-55 -10q-40 0 -69 12q-40 16 -53 51l-7 18l-19 -20q-32 -34 -74.5 -52t-78.5 -18q-65 0 -103 36t-38 97q0 52 40 93q32 32 105 69q2 1 142 65l13 6v20v34q0 46 -9 63q-13 24 -51 24q-39 0 -53 -26q-9 -16 -9 -51v-20q3 -37 -16 -65.5
t-58 -28.5q-29 0 -48.5 24.5t-19.5 57.5q6 64 77.5 109t154.5 45q114 0 176.5 -49.5t62.5 -144.5v-188q-1 -18 -1 -27q0 -20 5 -33t15 -16t20 -3q8 0 16 3v-33zM339 159v151l-13 -7q-40 -21 -63 -71q-19 -41 -19 -76q0 -29 14 -52.5t39 -23.5q23 0 34 26q8 20 8 53zM508 737
l-2 -13q-7 -46 -26 -80q-22 -38 -49 -44q-14 -2 -20 -2q-31 0 -100 29t-103 29q-21 0 -41 -11.5t-26 -32.5l-4 -13h-15l1 16q6 48 27.5 83.5t56.5 42.5q17 3 32 3q39 0 84 -18q103 -41 112 -41q44 0 57 43l3 9h13z" />
    <glyph glyph-name="adieresis" unicode="&#xe4;" horiz-adv-x="629" 
d="M600 44l-13 -12q-22 -20 -52 -30t-55 -10q-40 0 -69 12q-40 16 -53 51l-7 18l-19 -20q-32 -34 -74.5 -52t-78.5 -18q-65 0 -103 36t-38 97q0 52 40 93q32 32 105 69q2 1 142 65l13 6v20v34q0 46 -9 63q-13 24 -51 24q-39 0 -53 -26q-9 -16 -9 -51v-20q3 -37 -16 -65.5
t-58 -28.5q-29 0 -48.5 24.5t-19.5 57.5q6 64 77.5 109t154.5 45q114 0 176.5 -49.5t62.5 -144.5v-188q-1 -18 -1 -27q0 -20 5 -33t15 -16t20 -3q8 0 16 3v-33zM339 159v151l-13 -7q-40 -21 -63 -71q-19 -41 -19 -76q0 -29 14 -52.5t39 -23.5q23 0 34 26q8 20 8 53zM400 594
q-32 0 -50 20t-18 49q0 28 18 49t50 21q31 0 49 -21t18 -49t-17.5 -48.5t-49.5 -20.5zM232 594q-32 0 -50 20t-18 49q0 28 18 49t50 21q31 0 49 -21t18 -49t-17.5 -48.5t-49.5 -20.5z" />
    <glyph glyph-name="aring" unicode="&#xe5;" horiz-adv-x="632" 
d="M600 44l-13 -12q-22 -20 -52 -30t-55 -10q-40 0 -69 12q-40 16 -53 51l-7 18l-19 -20q-32 -34 -74.5 -52t-78.5 -18q-65 0 -103 36t-38 97q0 52 40 93q32 32 105 69q2 1 142 65l13 6v20v34q0 46 -9 63q-13 24 -51 24q-39 0 -53 -26q-9 -16 -9 -51v-20q3 -37 -16 -65.5
t-58 -28.5q-29 0 -48.5 24.5t-19.5 57.5q6 64 77.5 109t154.5 45q114 0 176.5 -49.5t62.5 -144.5v-188q-1 -18 -1 -27q0 -20 5 -33t15 -16t20 -3q8 0 16 3v-33zM339 159v151l-13 -7q-40 -21 -63 -71q-19 -41 -19 -76q0 -29 14 -52.5t39 -23.5q23 0 34 26q8 20 8 53zM308 595
q-39 0 -61 25t-22 59t22 59t61 25t61 -25t22 -59q0 -35 -21 -59.5t-62 -24.5zM309 626q26 0 39.5 15.5t13.5 37.5t-13.5 38t-39.5 16q-25 0 -39 -16t-14 -38q0 -21 14 -37t39 -16z" />
    <glyph glyph-name="ae" unicode="&#xe6;" horiz-adv-x="875" 
d="M825 339l-1 -38h-296l4 -27q10 -73 69.5 -124t123.5 -51q27 0 47.5 5.5t30.5 15.5l21 21v-51l-18 -19q-82 -88 -195 -88q-48 0 -91 17q-74 29 -131 105l-27 -40q-24 -36 -81 -59t-102 -23q-65 0 -103 36t-38 97q0 52 40 93q32 32 105 69q2 1 142 65l13 6v20v34
q0 46 -9 63q-13 24 -51 24q-39 0 -53 -26q-9 -16 -9 -51v-20q3 -37 -16 -65.5t-58 -28.5q-29 0 -48.5 24.5t-19.5 57.5q6 64 77.5 109t154.5 45q57 0 90 -11.5t67 -39.5q66 47 139 47q87 0 155 -58t68 -134zM677 389q0 42 -10 66q-17 40 -59 40q-46 0 -67 -40
q-17 -32 -17 -83l1 -23l19 -5q15 -4 35 -4q38 0 68 14t30 35zM339 159v151l-13 -7q-40 -21 -63 -71q-19 -41 -19 -76q0 -29 14 -52.5t39 -23.5q23 0 34 26q8 20 8 53z" />
    <glyph glyph-name="ccedilla" unicode="&#xe7;" horiz-adv-x="551" 
d="M520 90l-18 -19q-42 -45 -88 -66.5t-107 -21.5q-13 -1 -20 -1q-6 0 -21 3l11 -62h8q13 0 29.5 -2.5t33.5 -9t26 -23t9 -34.5q0 -26 -15 -43q-22 -25 -50.5 -35.5t-65.5 -10.5t-57 7q-38 13 -49 51q-3 9 8.5 23t25.5 12q22 -3 37 -32t42 -29q17 0 28.5 7t11.5 25
q0 31 -41 37q-18 -1 -28 -2l-6 -1l29 124q-106 25 -164 95t-58 164q0 112 84 198.5t183 86.5q80 0 143 -36q71 -40 71 -104q0 -11 -1 -16q-4 -35 -19 -55q-18 -24 -50 -29q-4 -1 -11 -1q-26 0 -50.5 16.5t-28 32.5t-3.5 22q0 10 2.5 33.5t2.5 29.5q0 29 -11 43
q-15 19 -54 19q-47 0 -63 -47q-11 -31 -11 -95q0 -97 62 -173t142 -76q25 0 47 7t33 18l21 21v-51z" />
    <glyph glyph-name="egrave" unicode="&#xe8;" horiz-adv-x="548" 
d="M516 339l-1 -38h-296l4 -27q10 -73 69.5 -124t123.5 -51q27 0 47.5 5.5t30.5 15.5l21 21v-51l-18 -19q-82 -88 -195 -88q-110 0 -189.5 77.5t-79.5 185.5q0 120 79.5 202.5t180.5 82.5q87 0 155 -58t68 -134zM368 389q0 42 -10 66q-17 40 -59 40q-46 0 -67 -40
q-17 -32 -17 -83l1 -23l19 -5q15 -4 35 -4q38 0 68 14t30 35zM395 605l-10 -11l-9 6q-69 38 -137 77q-30 20 -30 55q0 30 22 48q17 14 41 14q32 0 47 -20q10 -12 30 -58q25 -57 42 -103z" />
    <glyph glyph-name="eacute" unicode="&#xe9;" horiz-adv-x="548" 
d="M516 339l-1 -38h-296l4 -27q10 -73 69.5 -124t123.5 -51q27 0 47.5 5.5t30.5 15.5l21 21v-51l-18 -19q-82 -88 -195 -88q-110 0 -189.5 77.5t-79.5 185.5q0 120 79.5 202.5t180.5 82.5q87 0 155 -58t68 -134zM368 389q0 42 -10 66q-17 40 -59 40q-46 0 -67 -40
q-17 -32 -17 -83l1 -23l19 -5q15 -4 35 -4q38 0 68 14t30 35zM379 783q10 -8 16 -22t6 -27q0 -38 -30 -56q-21 -13 -52 -30q-77 -42 -87 -48l-9 -6l-10 11l4 9q21 57 41 103t33.5 63t46.5 17q24 0 41 -14z" />
    <glyph glyph-name="ecircumflex" unicode="&#xea;" horiz-adv-x="549" 
d="M516 339l-1 -38h-296l4 -27q10 -73 69.5 -124t123.5 -51q27 0 47.5 5.5t30.5 15.5l21 21v-51l-18 -19q-82 -88 -195 -88q-110 0 -189.5 77.5t-79.5 185.5q0 120 79.5 202.5t180.5 82.5q87 0 155 -58t68 -134zM368 389q0 42 -10 66q-17 40 -59 40q-46 0 -67 -40
q-17 -32 -17 -83l1 -23l19 -5q15 -4 35 -4q38 0 68 14t30 35zM491 606l-11 -12l-190 76l-180 -77l-8 12l190 211z" />
    <glyph glyph-name="edieresis" unicode="&#xeb;" horiz-adv-x="554" 
d="M522 339l-1 -38h-296l4 -27q10 -73 69.5 -124t123.5 -51q27 0 47.5 5.5t30.5 15.5l21 21v-51l-18 -19q-82 -88 -195 -88q-110 0 -189.5 77.5t-79.5 185.5q0 120 79.5 202.5t180.5 82.5q87 0 155 -58t68 -134zM374 389q0 42 -10 66q-17 40 -59 40q-46 0 -67 -40
q-17 -32 -17 -83l1 -23l19 -5q15 -4 35 -4q38 0 68 14t30 35zM392 594q-32 0 -50 20.5t-18 49.5q0 28 18 49t50 21t50 -20.5t18 -49.5q0 -28 -18 -49t-50 -21zM223 594q-32 0 -50 20.5t-18 49.5q0 28 18 49t50 21t50 -20.5t18 -49.5q0 -28 -18 -49t-50 -21z" />
    <glyph glyph-name="igrave" unicode="&#xec;" horiz-adv-x="417" 
d="M385 0h-329v34h7q9 0 26 5t23 22t6 46q0 8 -0.5 16.5t-0.5 17.5v147q1 18 1 30q0 17 -2 31t-9 20q-16 12 -33 26t-29 22l-11 8q26 8 65 21q53 18 99 37q25 10 57 25t66 32v-399q0 -46 2 -70t19 -30q3 -1 17.5 -4t18.5 -3h7v-34zM317 602l-10 -10l-9 5q-69 38 -137 77
q-30 20 -30 56q0 30 22 48q17 14 41 14q32 0 47 -20q11 -14 41 -85q12 -28 31 -76z" />
    <glyph glyph-name="iacute" unicode="&#xed;" horiz-adv-x="413" 
d="M382 0h-329v34h7q9 0 26 5t23 22t6 46q0 8 -0.5 16.5t-0.5 17.5v147q1 18 1 30q0 17 -2 31t-9 20q-16 12 -33 26t-29 22l-11 8q26 8 65 21q53 18 99 37q25 10 57 25t66 32v-399q0 -46 2 -70t19 -30q3 -1 17.5 -4t18.5 -3h7v-34zM298 780q10 -8 16 -21t6 -27
q0 -37 -30 -55q-24 -15 -51 -30q-75 -41 -85 -47l-10 -6l-10 11l4 8q19 53 40 100t32 61q15 20 48 20q21 0 40 -14z" />
    <glyph glyph-name="icircumflex" unicode="&#xee;" horiz-adv-x="450" 
d="M403 0h-329v34h7q9 0 26 5t23 22t6 46q0 8 -0.5 16.5t-0.5 17.5v147q1 18 1 30q0 17 -2 31t-9 20q-16 12 -33 26t-29 22l-11 8q26 8 65 21q53 18 99 37q25 10 57 25t66 32v-399q0 -46 2 -70t19 -30q3 -1 17.5 -4t18.5 -3h7v-34zM425 606l-11 -12l-190 76l-180 -77l-8 12
l190 211z" />
    <glyph glyph-name="idieresis" unicode="&#xef;" horiz-adv-x="427" 
d="M388 0h-329v34h7q9 0 26 5t23 22t6 46q0 8 -0.5 16.5t-0.5 17.5v147q1 18 1 30q0 17 -2 31t-9 20q-16 12 -33 26t-29 22l-11 8q26 8 65 21q53 18 99 37q25 10 57 25t66 32v-399q0 -46 2 -70t19 -30q3 -1 17.5 -4t18.5 -3h7v-34zM308 594q-32 0 -50 20.5t-18 49.5
q0 28 18 49t50 21t50 -20.5t18 -49.5q0 -28 -18 -49t-50 -21zM139 594q-32 0 -50 20.5t-18 49.5q0 28 18 49t50 21t50 -20.5t18 -49.5q0 -28 -18 -49t-50 -21z" />
    <glyph glyph-name="ntilde" unicode="&#xf1;" horiz-adv-x="750" 
d="M715 0h-331v34h7q8 0 16.5 1.5t16.5 4.5q16 7 20.5 22t4.5 41q0 12 -0.5 21.5t-0.5 16.5v202q1 13 1 24q0 33 -9 52q-14 29 -47 29q-32 0 -46 -27t-14 -63v-358h-270v34h7q22 0 35.5 5t19 21.5t5.5 41.5q0 9 -0.5 19t-0.5 20v146v15q0 14 -3.5 27t-16.5 26t-25 20
q-21 12 -42 25l-7 5q12 4 69 28q63 27 106 48q15 8 62 33q23 13 43 24v-88l11 11q67 67 154 67q68 0 118 -46t50 -112v-229q0 -96 27 -102q16 -3 33 -5h7v-34zM553 731l-2 -13q-6 -44 -26 -79.5t-47 -41.5q-12 -2 -19 -2q-31 0 -99.5 28.5t-99.5 28.5q-20 0 -39.5 -11
t-25.5 -32l-4 -13h-15l2 16q5 47 25.5 81.5t55.5 41.5q17 3 31 3q36 0 82 -18q100 -39 110 -39q43 0 56 41l2 9h13z" />
    <glyph glyph-name="ograve" unicode="&#xf2;" horiz-adv-x="660" 
d="M630 269q0 -122 -92 -205q-87 -79 -200 -79q-122 0 -212 83t-90 201q0 114 90 190.5t211 76.5q114 0 201 -75q92 -79 92 -192zM411 265q0 111 -8 153q-16 83 -68 83q-39 0 -58 -37q-22 -42 -22 -155v-22v-15v-51q0 -94 11 -133q18 -64 69 -64q46 0 64 50q13 36 13 112
q0 20 -0.5 40t-0.5 39zM424 605l-9 -10l-9 5q-68 38 -135 76q-30 20 -30 55q0 29 22 47q17 14 40 14q32 0 47 -20q12 -14 41 -84q8 -20 30 -74z" />
    <glyph glyph-name="oacute" unicode="&#xf3;" horiz-adv-x="663" 
d="M630 269q0 -122 -92 -205q-87 -79 -200 -79q-122 0 -212 83t-90 201q0 114 90 190.5t211 76.5q114 0 201 -75q92 -79 92 -192zM411 265q0 111 -8 153q-16 83 -68 83q-39 0 -58 -37q-22 -42 -22 -155v-22v-15v-51q0 -94 11 -133q18 -64 69 -64q46 0 64 50q13 36 13 112
q0 20 -0.5 40t-0.5 39zM412 780q10 -8 16 -21t6 -27q0 -37 -30 -55q-24 -15 -51 -30q-75 -41 -85 -47l-10 -6l-10 11l4 8q19 53 40 100t32 61q15 20 48 20q21 0 40 -14z" />
    <glyph glyph-name="ocircumflex" unicode="&#xf4;" horiz-adv-x="666" 
d="M630 269q0 -122 -92 -205q-87 -79 -200 -79q-122 0 -212 83t-90 201q0 114 90 190.5t211 76.5q114 0 201 -75q92 -79 92 -192zM411 265q0 111 -8 153q-16 83 -68 83q-39 0 -58 -37q-22 -42 -22 -155v-22v-15v-51q0 -94 11 -133q18 -64 69 -64q46 0 64 50q13 36 13 112
q0 20 -0.5 40t-0.5 39zM530 606l-11 -12l-190 76l-180 -77l-8 12l190 211z" />
    <glyph glyph-name="otilde" unicode="&#xf5;" horiz-adv-x="663" 
d="M630 269q0 -122 -92 -205q-87 -79 -200 -79q-122 0 -212 83t-90 201q0 114 90 190.5t211 76.5q114 0 201 -75q92 -79 92 -192zM411 265q0 111 -8 153q-16 83 -68 83q-39 0 -58 -37q-22 -42 -22 -155v-22v-15v-51q0 -94 11 -133q18 -64 69 -64q46 0 64 50q13 36 13 112
q0 20 -0.5 40t-0.5 39zM523 729l-2 -14q-6 -46 -26 -81t-48 -41q-7 -2 -20 -2q-31 0 -99.5 28.5t-99.5 28.5q-20 0 -40 -11t-26 -32l-3 -13h-16l2 16q5 46 26.5 82t55.5 43q17 3 31 3q37 0 83 -18q103 -40 111 -40q44 0 56 42l2 9h13z" />
    <glyph glyph-name="odieresis" unicode="&#xf6;" horiz-adv-x="666" 
d="M630 269q0 -122 -92 -205q-87 -79 -200 -79q-122 0 -212 83t-90 201q0 114 90 190.5t211 76.5q114 0 201 -75q92 -79 92 -192zM411 265q0 111 -8 153q-16 83 -68 83q-39 0 -58 -37q-22 -42 -22 -155v-22v-15v-51q0 -94 11 -133q18 -64 69 -64q46 0 64 50q13 36 13 112
q0 20 -0.5 40t-0.5 39zM422 594q-32 0 -50 20.5t-18 49.5q0 28 18 49t50 21t50 -20.5t18 -49.5q0 -28 -18 -49t-50 -21zM253 594q-32 0 -50 20.5t-18 49.5q0 28 18 49t50 21t50 -20.5t18 -49.5q0 -28 -18 -49t-50 -21z" />
    <glyph glyph-name="divide" unicode="&#xf7;" horiz-adv-x="697" 
d="M427 466q0 -33 -24 -57t-59 -24q-32 0 -55 25t-23 59q0 32 24 55t57 23t56.5 -23.5t23.5 -57.5zM665 258h-626v90h626v-90zM426 141q0 -34 -24 -58t-59 -24q-33 0 -55 24t-22 59q0 33 23 56t57 23q32 0 56 -24t24 -56z" />
    <glyph glyph-name="oslash" unicode="&#xf8;" horiz-adv-x="660" 
d="M630 269q0 -122 -92 -205q-87 -79 -200 -79q-54 0 -101 16l-50 -102h-36l56 114q-77 35 -124 103.5t-47 152.5q0 114 90 190.5t211 76.5q57 0 112 -22l49 100h37l-55 -114q65 -36 107.5 -97.5t42.5 -133.5zM403 418q-7 39 -22 59q-18 24 -46 24q-39 0 -58 -37
q-22 -42 -22 -155v-22v-15q0 -18 -0.5 -37t-0.5 -38q0 -24 1 -37t4 -40zM411 265l-1 91l-139 -285q19 -47 64 -47q46 0 64 50q13 36 13 112q0 20 -0.5 40t-0.5 39z" />
    <glyph glyph-name="ugrave" unicode="&#xf9;" horiz-adv-x="749" 
d="M704 0h-230l-28 -12l-5 79l-8 -8q-40 -40 -77 -59t-86 -19q-77 0 -117.5 46.5t-40.5 136.5q0 15 5 71q2 22 2 40q0 29 -6.5 49t-25.5 37q-23 21 -26 23t-28 17l-10 6l139 61q18 8 67 33q40 20 81 41v-382q0 -34 15.5 -60t46.5 -26q26 0 43 20t17 47v150v16
q0 18 -3.5 33.5t-14.5 25.5q-22 21 -27 25q-13 9 -28 19l-10 7q18 6 64 24q29 12 98 41l121 56v-397q0 -46 2 -70t19 -30q2 -1 20.5 -4t23.5 -3h7v-34zM473 605l-10 -11l-9 6q-69 38 -137 77q-30 20 -30 55q0 30 22 48q17 14 41 14q32 0 47 -20q10 -12 30 -58
q25 -57 42 -103z" />
    <glyph glyph-name="uacute" unicode="&#xfa;" horiz-adv-x="744" 
d="M704 0h-230l-28 -12l-5 79l-8 -8q-40 -40 -77 -59t-86 -19q-77 0 -117.5 46.5t-40.5 136.5q0 15 5 71q2 22 2 40q0 29 -6.5 49t-25.5 37q-23 21 -26 23t-28 17l-10 6l139 61q18 8 67 33q40 20 81 41v-382q0 -34 15.5 -60t46.5 -26q26 0 43 20t17 47v150v16
q0 18 -3.5 33.5t-14.5 25.5q-22 21 -27 25q-13 9 -28 19l-10 7q18 6 64 24q29 12 98 41l121 56v-397q0 -46 2 -70t19 -30q2 -1 20.5 -4t23.5 -3h7v-34zM475 780q10 -8 16 -21t6 -27q0 -37 -30 -55q-24 -15 -51 -30q-75 -41 -85 -47l-10 -6l-10 11l4 8q19 53 40 100t32 61
q15 20 48 20q21 0 40 -14z" />
    <glyph glyph-name="ucircumflex" unicode="&#xfb;" horiz-adv-x="747" 
d="M704 0h-230l-28 -12l-5 79l-8 -8q-40 -40 -77 -59t-86 -19q-77 0 -117.5 46.5t-40.5 136.5q0 15 5 71q2 22 2 40q0 29 -6.5 49t-25.5 37q-23 21 -26 23t-28 17l-10 6l139 61q18 8 67 33q40 20 81 41v-382q0 -34 15.5 -60t46.5 -26q26 0 43 20t17 47v150v16
q0 18 -3.5 33.5t-14.5 25.5q-22 21 -27 25q-13 9 -28 19l-10 7q18 6 64 24q29 12 98 41l121 56v-397q0 -46 2 -70t19 -30q2 -1 20.5 -4t23.5 -3h7v-34zM563 606l-11 -12l-190 76l-180 -77l-8 12l190 211z" />
    <glyph glyph-name="udieresis" unicode="&#xfc;" horiz-adv-x="747" 
d="M704 0h-230l-28 -12l-5 79l-8 -8q-40 -40 -77 -59t-86 -19q-77 0 -117.5 46.5t-40.5 136.5q0 15 5 71q2 22 2 40q0 29 -6.5 49t-25.5 37q-23 21 -26 23t-28 17l-10 6l139 61q18 8 67 33q40 20 81 41v-382q0 -34 15.5 -60t46.5 -26q26 0 43 20t17 47v150v16
q0 18 -3.5 33.5t-14.5 25.5q-22 21 -27 25q-13 9 -28 19l-10 7q18 6 64 24q29 12 98 41l121 56v-397q0 -46 2 -70t19 -30q2 -1 20.5 -4t23.5 -3h7v-34zM475 594q-32 0 -50 20t-18 49q0 28 18 49t50 21q31 0 49 -21t18 -49t-17.5 -48.5t-49.5 -20.5zM307 594q-32 0 -50 20
t-18 49q0 28 18 49t50 21q31 0 49 -21t18 -49t-17.5 -48.5t-49.5 -20.5z" />
    <glyph glyph-name="ydieresis" unicode="&#xff;" horiz-adv-x="678" 
d="M647 478h-7q-10 0 -19 -4q-3 -1 -21 -11.5t-38 -48.5q-8 -15 -21 -46l-146 -308q-20 -42 -41.5 -75.5t-52.5 -71.5t-72 -62q-51 -30 -104 -30q-56 0 -91.5 28.5t-35.5 69.5q0 40 25 58.5t61 18.5q28 0 91 -46q30 -22 53 -22q37 0 57 31q16 24 23 68q1 5 1 14
q0 22 -7.5 44.5t-19.5 48.5l-131 253q-13 27 -22 40q-18 27 -31.5 34.5t-26.5 12t-24 4.5h-10v38h367v-38h-9q-21 0 -30 -12q-5 -6 -5 -16q0 -7 4 -18q1 -2 8 -18l73 -147l63 134q5 12 7.5 19.5t2.5 16.5q0 12 -6.5 22t-19 15t-25.5 5h-7v37h187v-38zM503 594
q-32 0 -50 20.5t-18 49.5q0 28 18 49t50 21t50 -20.5t18 -49.5q0 -28 -18 -49t-50 -21zM334 594q-32 0 -50 20.5t-18 49.5q0 28 18 49t50 21t50 -20.5t18 -49.5q0 -28 -18 -49t-50 -21z" />
    <glyph glyph-name="OE" unicode="&#x152;" horiz-adv-x="1176" 
d="M1146 215l-58 -215h-530q-28 -6 -44 -9q-50 -9 -81 -9q-164 0 -281.5 109.5t-117.5 268.5q0 163 116.5 279.5t279.5 116.5q49 0 81 -8q10 -2 22 -8h388h16q14 0 26 1t26 5t21 8t25 16q6 -28 11.5 -50t15.5 -55q4 -15 15 -45q6 -18 17 -45l-32 -17q-17 30 -49 61
q-35 34 -66 47q-38 16 -50 19q-37 10 -94 10h-26v-254q8 -2 26 -2q26 0 50.5 4.5t43 16.5t26.5 28.5t11 40.5h36v-239h-39q-3 31 -11 46t-30.5 33t-65.5 26q-22 4 -36 4q-8 -1 -11 -1v-257q0 -40 17 -60q21 -25 71 -29q6 -1 18 -1q65 0 122 43q65 49 96 116l11 23zM532 105
v528q0 19 -24 41q-30 28 -75 28q-91 0 -124 -89q-22 -60 -22 -187v-54q0 -109 4 -151q8 -88 36 -132q35 -56 106 -56q46 0 72.5 21.5t26.5 50.5z" />
    <glyph glyph-name="oe" unicode="&#x153;" horiz-adv-x="956" 
d="M929 342l-1 -38h-296l4 -27q10 -73 69.5 -124t123.5 -51q27 0 47.5 5.5t30.5 15.5l21 21v-51l-18 -19q-82 -88 -195 -88q-51 0 -98.5 18.5t-85.5 52.5q-42 -34 -91.5 -53t-101.5 -19q-122 0 -212 83t-90 201q0 114 90 190.5t211 76.5q54 0 106 -19.5t93 -55.5
q76 73 170 73q87 0 155 -58t68 -134zM781 392q0 42 -10 66q-17 40 -59 40q-46 0 -67 -40q-17 -32 -17 -83l1 -23l19 -5q15 -4 35 -4q38 0 68 14t30 35zM411 265q0 111 -8 153q-16 83 -68 83q-39 0 -58 -37q-22 -42 -22 -155v-22v-15v-51q0 -94 11 -133q18 -64 69 -64
q46 0 64 50q13 36 13 112q0 20 -0.5 40t-0.5 39z" />
    <glyph glyph-name="Ydieresis" unicode="&#x178;" horiz-adv-x="819" 
d="M785 705h-10q-26 0 -53 -15q-18 -10 -43 -44q-31 -42 -71 -117l-57 -107v-281q0 -45 6 -63.5t17 -26.5t27.5 -12.5t25.5 -4.5h7v-34h-410v34h7q11 0 28.5 3.5t29.5 13t16.5 23t4.5 31.5q0 9 -0.5 18t-0.5 18v222l-152 250l-20 36q-18 27 -41 41q-9 5 -21 8t-32 5l-8 1v36
h439v-37h-8q-20 0 -27 -2q-6 -2 -16.5 -11.5t-10.5 -29.5q0 -7 2 -14t4 -13l100 -181l81 150q10 19 16 34.5t6 29.5q0 15 -7.5 23.5t-17.5 11t-27 2.5h-7l-1 37h224v-35zM544 800q-37 0 -57.5 23.5t-20.5 55.5t20.5 55.5t57.5 23.5q36 0 58 -25q19 -22 19 -54t-20.5 -55.5
t-56.5 -23.5zM352 800q-37 0 -57.5 23.5t-20.5 55.5t20.5 55.5t57.5 23.5q36 0 58 -25q19 -22 19 -54t-20.5 -55.5t-56.5 -23.5z" />
    <glyph glyph-name="florin" unicode="&#x192;" horiz-adv-x="483" 
d="M466 790q-7 -18 -21 -28t-32 -10q-9 0 -18 8q-13 12 -16 13q-5 3 -9 3q-23 0 -35 -114q-8 -73 -15 -104l-6 -21h103l-6 -42h-108l-62 -309q-23 -115 -57 -193q-53 -124 -121 -124q-12 0 -23.5 3.5t-20.5 14.5t-9 24q0 4 2 10q12 37 48 37q13 0 20.5 -13.5t14.5 -15.5
q31 -9 55 103q15 76 21 107l72 357h-112l1 42h126l7 29q22 112 54 179q43 91 100 91q21 0 37 -14.5t10 -32.5z" />
    <glyph glyph-name="summation" unicode="&#x3a3;" horiz-adv-x="756" 
d="M735 108q-13 -38 -19 -60.5t-11 -57.5q-7 -36 -9.5 -57.5t-2.5 -51.5l-73 14h-592l367 402l-360 449l67 -6h560l1 -165h-22q0 29 -8.5 50t-29 39.5t-42 23.5t-59.5 5h-303l291 -351l-311 -348h416q37 0 68 24q49 36 49 90h23z" />
    <glyph glyph-name="Omega" unicode="&#x3a9;" horiz-adv-x="798" 
d="M762 -1h-303l15 149q73 32 108.5 95t35.5 147q0 107 -40 159q-51 67 -176 67q-116 0 -172 -67q-48 -58 -48 -159q0 -85 35.5 -147.5t108.5 -94.5l14 -149h-303v156h20q0 -20 10 -35q16 -26 54 -26h165v31q-98 17 -159.5 91.5t-61.5 175.5q0 119 96 189q91 66 240 66
q155 0 244 -67t89 -188q0 -102 -60.5 -176t-160.5 -91v-31h166q36 0 54 26q10 15 10 35h19v-156z" />
    <glyph glyph-name="pi" unicode="&#x3c0;" horiz-adv-x="603" 
d="M576 166l-2 -22q-7 -61 -44 -102.5t-93 -41.5q-49 0 -73 49q-20 41 -20 107q0 23 3 46l25 230h-125l-43 -337q-4 -39 -21 -66q-20 -33 -48 -33q-4 0 -27 2.5t-31 33.5q-2 12 -2 17q0 19 16 37q47 52 50 59q2 6 9 23.5t8 28.5l26 230h-36h-13q-9 0 -17 -0.5t-23 -7
t-30.5 -25t-18.5 -30.5l-18 8l7 14q25 57 31 67q19 32 51 48q20 10 34 13.5t36 3.5h383v-86h-139l-14 -254q0 -36 18.5 -63t49.5 -27q25 0 42.5 16.5t23.5 42.5l4 19h21z" />
    <glyph glyph-name="endash" unicode="&#x2013;" 
d="M438 251h-403v94h403v-94z" />
    <glyph glyph-name="emdash" unicode="&#x2014;" horiz-adv-x="808" 
d="M774 251h-739v94h739v-94z" />
    <glyph glyph-name="quoteleft" unicode="&#x2018;" horiz-adv-x="296" 
d="M264 514q0 -47 -32.5 -80.5t-78.5 -33.5q-54 0 -85.5 45t-31.5 105q0 68 45.5 121t109.5 64l29 5l6 -41l-14 -2q-19 -3 -32 -11q-3 -2 -18.5 -15t-31.5 -40q-5 -14 -9 -27q14 4 24 6q21 5 34 5q36 0 60.5 -29.5t24.5 -71.5z" />
    <glyph glyph-name="quoteright" unicode="&#x2019;" horiz-adv-x="297" 
d="M266 590q0 -68 -45.5 -121t-109.5 -64l-29 -5l-6 41l14 2q19 3 32 11q3 2 18 14q20 17 37 51q2 8 4 17q-14 -4 -29.5 -7.5t-28.5 -3.5q-36 0 -60.5 29.5t-24.5 71.5q0 47 32.5 80.5t78.5 33.5q54 0 87 -47q30 -43 30 -103z" />
    <glyph glyph-name="quotesinglbase" unicode="&#x201a;" horiz-adv-x="297" 
d="M266 66q0 -68 -45.5 -121t-109.5 -64l-29 -5l-6 41l14 2q19 3 32 11q3 2 18.5 15t31.5 40q4 14 9 27q-14 -4 -29.5 -7.5t-28.5 -3.5q-36 0 -60.5 29.5t-24.5 71.5q0 47 32.5 80.5t78.5 33.5q54 0 87 -47q30 -43 30 -103z" />
    <glyph glyph-name="quotedblleft" unicode="&#x201c;" horiz-adv-x="507" 
d="M475 528q0 -56 -24 -82t-80 -26q-51 0 -80.5 42.5t-29.5 98.5q0 65 42.5 114.5t103.5 59.5l27 5l6 -39l-13 -1q-5 1 -9 3q-11 -6 -38 -27q-14 -12 -30 -39q-5 -13 -9 -25q22 6 34 8t21 2q33 0 56 -27.5t23 -66.5zM247 528q0 -52 -25.5 -80t-78.5 -28q-51 0 -80.5 42.5
t-29.5 98.5q0 64 42.5 114t102.5 60l28 5l5 -39l-13 -1l-10 4q-6 -3 -37 -28q-13 -12 -29 -39q-5 -13 -9 -25q9 2 15 3q29 7 39 7q34 0 57 -27t23 -67z" />
    <glyph glyph-name="quotedblright" unicode="&#x201d;" horiz-adv-x="540" 
d="M506 590q0 -68 -45.5 -121t-109.5 -64l-29 -5l-6 41l14 2q19 3 32 11q3 2 18 14q20 17 37 51q2 8 4 17q-14 -4 -29.5 -7.5t-28.5 -3.5q-36 0 -60.5 29.5t-24.5 71.5q0 47 32.5 80.5t78.5 33.5q54 0 87 -47q30 -43 30 -103zM263 590q0 -68 -45.5 -121t-109.5 -64l-29 -5
l-6 41l14 2q19 3 32 11q3 2 18 14q20 17 37 51q2 8 4 17q-14 -4 -29.5 -7.5t-28.5 -3.5q-36 0 -60.5 29.5t-24.5 71.5q0 47 32.5 80.5t78.5 33.5q54 0 87 -47q30 -43 30 -103z" />
    <glyph glyph-name="quotedblbase" unicode="&#x201e;" horiz-adv-x="540" 
d="M506 66q0 -68 -45.5 -121t-109.5 -64l-29 -5l-6 41l14 2q19 3 32 11q3 2 18.5 15t31.5 40q4 14 9 27q-14 -4 -29.5 -7.5t-28.5 -3.5q-36 0 -60.5 29.5t-24.5 71.5q0 47 32.5 80.5t78.5 33.5q54 0 87 -47q30 -43 30 -103zM263 66q0 -68 -45.5 -121t-109.5 -64l-29 -5
l-6 41l14 2q19 3 32 11q3 2 18.5 15t31.5 40q4 14 9 27q-14 -4 -29.5 -7.5t-28.5 -3.5q-36 0 -60.5 29.5t-24.5 71.5q0 47 32.5 80.5t78.5 33.5q54 0 87 -47q30 -43 30 -103z" />
    <glyph glyph-name="dagger" unicode="&#x2020;" horiz-adv-x="582" 
d="M551 425h-215v-635h-81v635h-216l2 89h214v225h83v-225h213v-89z" />
    <glyph glyph-name="bullet" unicode="&#x2022;" horiz-adv-x="301" 
d="M152 279q-54 0 -84.5 34.5t-30.5 81.5q0 48 29.5 82t85.5 34q55 0 87 -36q29 -32 29 -80q0 -47 -30.5 -81.5t-85.5 -34.5z" />
    <glyph glyph-name="ellipsis" unicode="&#x2026;" horiz-adv-x="978" 
d="M831 -15q-54 0 -84.5 34.5t-30.5 80.5q0 48 29.5 82t85.5 34q55 0 87 -36q29 -32 29 -80q0 -46 -30.5 -80.5t-85.5 -34.5zM493 -15q-54 0 -84.5 34.5t-30.5 80.5q0 48 29.5 82t85.5 34q55 0 87 -36q29 -32 29 -80q0 -46 -30.5 -80.5t-85.5 -34.5zM150 -15
q-54 0 -84.5 34.5t-30.5 80.5q0 48 29.5 82t85.5 34q55 0 87 -36q29 -32 29 -80q0 -46 -30.5 -80.5t-85.5 -34.5z" />
    <glyph glyph-name="trademark" unicode="&#x2122;" horiz-adv-x="708" 
d="M300 710h-116v-340h-35v340h-115v30h266v-30zM673 370h-36v328l-122 -327h-33l-117 328v-329h-37v369h57l115 -324l120 324h53v-369z" />
    <glyph glyph-name="partialdiff" unicode="&#x2202;" horiz-adv-x="523" 
d="M490 400q0 -154 -64 -279q-72 -140 -183 -140q-12 0 -18 1q-92 9 -142.5 63.5t-50.5 138.5q0 91 59 158.5t146 67.5q39 0 66.5 -11t64.5 -38l31 -21l8 51q5 33 5 63q0 106 -43 178q-49 82 -135 82q-30 0 -62 -11l-38 -14l-19 -6l-39 48l44 13q49 15 96 15q125 0 203 -114
q71 -104 71 -245zM391 302l-28 26q-16 15 -31.5 24t-32 12t-28.5 3q-50 0 -90 -44q-36 -39 -53 -99q-9 -33 -9 -68q0 -53 22 -92t68 -53q12 -4 27 -4q55 0 94 72q30 55 46 143z" />
    <glyph glyph-name="Delta" unicode="&#x2206;" horiz-adv-x="730" 
d="M709 0h-673l359 755zM576 49l-223 526l-247 -526h470z" />
    <glyph glyph-name="product" unicode="&#x220f;" horiz-adv-x="885" 
d="M849 -109h-322v19l26 2q23 0 35 2.5t22.5 13t13.5 22.5t3 27v23v679h-377v-675q0 -37 6 -51.5t19.5 -24.5t26.5 -12.5t35 -2.5h19v-22h-322v23h26h23q17 2 34 14.5t20 28t3 49.5v614q0 44 -33 73q-7 5 -20 13t-30 10l-17 1v22h809v-23l-23 -1q-16 0 -25 -4.5t-26 -18
t-23.5 -35t-6.5 -52.5v-607q0 -26 4 -41.5t18 -28.5q11 -10 25 -14.5t33 -4.5l24 -1v-17z" />
    <glyph glyph-name="radical" unicode="&#x221a;" horiz-adv-x="537" 
d="M506 826l-141 -874l-234 461l-89 -46l-15 31l137 65l188 -369l122 737z" />
    <glyph glyph-name="infinity" unicode="&#x221e;" horiz-adv-x="821" 
d="M791 267q0 -73 -47 -119t-109 -46q-41 0 -87.5 19t-85.5 55l-48 47l-50 -47q-37 -34 -85 -54t-88 -20q-63 0 -108 44q-48 47 -48 121q0 63 47 107t112 44q81 0 158 -71l61 -54l61 54q38 34 78.5 52.5t79.5 18.5q66 0 112.5 -43.5t46.5 -107.5zM737 264q-4 42 -34 69
t-75 27q-31 0 -57 -12q-16 -7 -51 -33l-73 -55l68 -63q47 -43 112 -43q49 0 79.5 31.5t30.5 78.5zM379 260l-73 55q-27 20 -38 26q-33 19 -70 19q-46 0 -77 -26.5t-31 -69.5q0 -46 30 -78t79 -32q65 0 112 43z" />
    <glyph glyph-name="integral" unicode="&#x222b;" horiz-adv-x="310" 
d="M294 796q-2 -16 -15 -27t-30 -11q-9 0 -19 8q-13 11 -19 13q-13 7 -18.5 -6t-5.5 -43q0 -27 4 -72q10 -113 10 -132v-319q0 -122 -15 -194q-26 -123 -90 -123q-10 0 -24 3.5t-25.5 16t-11.5 29.5q0 18 11 29t28 11q13 0 23.5 -14t17.5 -16q17 -5 23.5 21t6.5 71
q0 31 -1 60l-2 58v445q0 129 28 189q23 50 66 50q23 0 42 -13.5t16 -33.5z" />
    <glyph glyph-name="approxequal" unicode="&#x2248;" horiz-adv-x="673" 
d="M646 396l-22 -25q-29 -35 -61.5 -50.5t-77.5 -15.5q-27 0 -56 9t-57 18l-92 26q-27 7 -42.5 11t-32.5 4q-14 0 -22 -2q-46 -11 -81 -48l-19 -20l-48 32l16 17q29 32 58.5 47.5t60.5 20t46 4.5q23 0 36 -3t51 -14l81 -25q34 -11 54 -16.5t45 -5.5q35 3 56 11.5t43 30.5
l20 22zM646 217l-22 -26q-30 -34 -62 -49.5t-77 -15.5q-27 0 -56 8.5t-57 17.5l-92 26q-19 5 -37.5 10.5t-33.5 5.5q-12 0 -32 -3.5t-37 -14t-38 -31.5l-19 -20l-48 31l16 16q30 33 58.5 48.5t71.5 22.5q18 3 32 3q20 0 43 -5q11 -2 47 -13l81 -24q31 -12 48 -17.5t38 -5.5
q8 1 13 1q32 0 54.5 9t44.5 33l20 21z" />
    <glyph glyph-name="notequal" unicode="&#x2260;" horiz-adv-x="618" 
d="M583 325h-200l-85 -141h284v-61h-315l-91 -163l-52 30l74 133h-160v61h195l77 141h-272v61h308l95 169l51 -30l-78 -139h169v-61z" />
    <glyph glyph-name="lessequal" unicode="&#x2264;" horiz-adv-x="454" 
d="M428 93l-405 179v71l404 174v-75l-330 -134l331 -143v-72zM426 0h-400v49h400v-49z" />
    <glyph glyph-name="greaterequal" unicode="&#x2265;" horiz-adv-x="454" 
d="M428 272l-405 -179v72l329 143l-328 134v75l404 -174v-71zM426 0h-400v49h400v-49z" />
    <glyph glyph-name="lozenge" unicode="&#x25ca;" horiz-adv-x="519" 
d="M489 372l-192 -372h-64l-195 377l195 360h64zM431 372l-166 311l-167 -308l169 -330z" />
    </font>
</defs>
</svg>
